<?xml version='1.0' encoding='utf-8'?>
<svg xmlns="http://www.w3.org/2000/svg" width="136" height="136" viewBox="0 0 136 136" fill="none">
<path d="M 98.275,16.8895 L 97.3836,16.371 L 96.4825,15.8675 L 95.5718,15.3794 L 94.6517,14.9067 L 93.7223,14.4496 L 92.7839,14.0083 L 91.8366,13.5829 L 90.8806,13.1737 L 89.9161,12.7809 L 88.9432,12.4045 L 87.9621,12.0447 L 86.973,11.7019 L 85.9761,11.376 L 84.9715,11.0673 L 83.9595,10.776 L 82.9401,10.5022 L 81.9137,10.2462 L 80.8803,10.008 L 79.8401,9.78789 L 78.7934,9.58602 L 77.7403,9.40256 L 76.6809,9.23769 L 75.6156,9.09157 L 74.5443,8.96438 L 73.4675,8.85629 L 72.3851,8.76747 L 71.2975,8.69809 L 70.2048,8.64833 L 69.1071,8.61835 L 68.0048,8.60832 L 66.9143,8.61813 L 65.8285,8.64747 L 64.7476,8.69616 L 63.6716,8.76404 L 62.6008,8.85095 L 61.5353,8.95673 L 60.4754,9.0812 L 59.4211,9.2242 L 58.3728,9.38556 L 57.3305,9.56513 L 56.2944,9.76272 L 55.2648,9.97818 L 54.2417,10.2113 L 53.2254,10.462 L 52.2161,10.73 L 51.2138,11.0153 L 50.2189,11.3175 L 49.2314,11.6366 L 48.2515,11.9723 L 47.2794,12.3246 L 46.3153,12.6932 L 45.3593,13.078 L 44.4116,13.4788 L 43.4724,13.8955 L 42.5419,14.3278 L 41.6202,14.7755 L 40.7074,15.2387 L 39.8038,15.7169 L 38.9096,16.2102 L 38.0248,16.7183 L 37.1497,17.241 L 36.2844,17.7782 L 35.4291,18.3298 L 34.584,18.8954 L 33.7491,19.4751 L 32.9248,20.0686 L 32.1111,20.6757 L 31.3083,21.2963 L 30.5164,21.9302 L 29.7357,22.5772 L 28.9663,23.2373 L 28.2084,23.9101 L 27.4621,24.5956 L 26.7276,25.2935 L 26.0052,26.0038 L 25.2949,26.7262 L 24.5968,27.4606 L 23.9113,28.2068 L 23.2384,28.9647 L 22.5783,29.7341 L 21.9312,30.5147 L 21.2973,31.3065 L 20.6766,32.1093 L 20.0695,32.9229 L 19.476,33.7472 L 18.8963,34.582 L 18.3305,35.4271 L 17.779,36.2823 L 17.2417,37.1475 L 16.7189,38.0226 L 16.2108,38.9073 L 15.7175,39.8015 L 15.2392,40.705 L 14.776,41.6177 L 14.3282,42.5393 L 13.8959,43.4698 L 13.4792,44.4089 L 13.0784,45.3565 L 12.6936,46.3124 L 12.3249,47.2765 L 11.9726,48.2485 L 11.6368,49.2283 L 11.3177,50.2158 L 11.0154,51.2107 L 10.7302,52.2129 L 10.4622,53.2222 L 10.2115,54.2384 L 9.97829,55.2614 L 9.76282,56.2909 L 9.56521,57.3269 L 9.38563,58.3691 L 9.22425,59.4174 L 9.08123,60.4716 L 8.95675,61.5314 L 8.85097,62.5968 L 8.76405,63.6676 L 8.69616,64.7435 L 8.64747,65.8244 L 8.61813,66.9101 L 8.60832,68.0004 L 8.61813,69.0907 L 8.64747,70.1764 L 8.69616,71.2573 L 8.76405,72.3332 L 8.85097,73.4039 L 8.95675,74.4693 L 9.08123,75.5292 L 9.22425,76.5833 L 9.38563,77.6316 L 9.56521,78.6738 L 9.76282,79.7098 L 9.97829,80.7394 L 10.2115,81.7623 L 10.4622,82.7786 L 10.7302,83.7878 L 11.0154,84.79 L 11.3177,85.7849 L 11.6368,86.7723 L 11.9726,87.7522 L 12.3249,88.7242 L 12.6936,89.6882 L 13.0784,90.6441 L 13.4792,91.5917 L 13.8959,92.5308 L 14.3282,93.4613 L 14.776,94.383 L 15.2392,95.2956 L 15.7175,96.1991 L 16.2108,97.0933 L 16.7189,97.978 L 17.2417,98.8531 L 17.779,99.7183 L 18.3305,100.574 L 18.8963,101.419 L 19.476,102.253 L 20.0695,103.078 L 20.6767,103.891 L 21.2973,104.694 L 21.9312,105.486 L 22.5783,106.267 L 23.2384,107.036 L 23.9113,107.794 L 24.5968,108.54 L 25.2949,109.274 L 26.0052,109.997 L 26.7277,110.707 L 27.4621,111.405 L 28.2084,112.09 L 28.9663,112.763 L 29.7357,113.423 L 30.5164,114.07 L 31.3083,114.704 L 32.1111,115.325 L 32.9248,115.932 L 33.7492,116.525 L 34.584,117.105 L 35.4291,117.671 L 36.2844,118.222 L 37.1497,118.759 L 38.0248,119.282 L 38.9096,119.79 L 39.8039,120.284 L 40.7074,120.762 L 41.6202,121.225 L 42.5419,121.673 L 43.4724,122.105 L 44.4116,122.522 L 45.3593,122.922 L 46.3153,123.307 L 47.2794,123.676 L 48.2515,124.028 L 49.2314,124.364 L 50.2189,124.683 L 51.2138,124.985 L 52.2161,125.27 L 53.2254,125.538 L 54.2417,125.789 L 55.2648,126.022 L 56.2944,126.238 L 57.3305,126.435 L 58.3728,126.615 L 59.4211,126.776 L 60.4754,126.919 L 61.5353,127.044 L 62.6008,127.149 L 63.6716,127.236 L 64.7476,127.304 L 65.8285,127.353 L 66.9143,127.382 L 68.0047,127.392 L 69.0951,127.382 L 70.1809,127.353 L 71.2618,127.304 L 72.3378,127.236 L 73.4086,127.149 L 74.4741,127.044 L 75.534,126.919 L 76.5882,126.776 L 77.6366,126.615 L 78.6789,126.435 L 79.7149,126.238 L 80.7446,126.022 L 81.7676,125.789 L 82.7839,125.538 L 83.7933,125.27 L 84.7955,124.985 L 85.7905,124.683 L 86.778,124.364 L 87.7579,124.028 L 88.73,123.676 L 89.6941,123.307 L 90.6501,122.922 L 91.5977,122.522 L 92.5369,122.105 L 93.4675,121.673 L 94.3892,121.225 L 95.3019,120.762 L 96.2055,120.284 L 97.0998,119.79 L 97.9845,119.282 L 98.8596,118.759 L 99.7249,118.222 L 100.58,117.671 L 101.425,117.105 L 102.26,116.525 L 103.085,115.932 L 103.898,115.325 L 104.701,114.704 L 105.493,114.07 L 106.274,113.423 L 107.043,112.763 L 107.801,112.09 L 108.547,111.405 L 109.282,110.707 L 110.004,109.997 L 110.715,109.274 L 111.413,108.54 L 112.098,107.794 L 112.771,107.036 L 113.431,106.267 L 114.078,105.486 L 114.712,104.694 L 115.333,103.891 L 115.94,103.078 L 116.533,102.253 L 117.113,101.419 L 117.679,100.574 L 118.23,99.7183 L 118.768,98.8531 L 119.29,97.978 L 119.799,97.0933 L 120.292,96.1991 L 120.77,95.2956 L 121.233,94.383 L 121.681,93.4613 L 122.113,92.5308 L 122.53,91.5917 L 122.931,90.6441 L 123.316,89.6882 L 123.684,88.7242 L 124.037,87.7522 L 124.373,86.7723 L 124.692,85.7849 L 124.994,84.79 L 125.279,83.7878 L 125.547,82.7786 L 125.798,81.7623 L 126.031,80.7394 L 126.247,79.7098 L 126.444,78.6738 L 126.624,77.6316 L 126.785,76.5833 L 126.928,75.5292 L 127.053,74.4693 L 127.158,73.4039 L 127.245,72.3332 L 127.313,71.2573 L 127.362,70.1764 L 127.391,69.0907 L 127.401,68.0004 L 127.391,66.9126 L 127.362,65.8295 L 127.314,64.7511 L 127.246,63.6777 L 127.16,62.6095 L 127.054,61.5465 L 126.93,60.4891 L 126.788,59.4373 L 126.627,58.3914 L 126.449,57.3515 L 126.252,56.3179 L 126.037,55.2906 L 125.805,54.2698 L 125.556,53.2558 L 125.289,52.2487 L 125.005,51.2486 L 124.704,50.2558 L 124.386,49.2704 L 124.052,48.2926 L 123.701,47.3225 L 123.334,46.3604 L 122.951,45.4063 L 122.552,44.4605 L 122.137,43.5232 L 121.707,42.5944 L 121.261,41.6744 L 120.8,40.7634 L 120.324,39.8614 L 119.833,38.9687 L 119.327,38.0854 L 118.815,37.2265 L 118.583,36.9109 L 118.293,36.6468 L 117.957,36.4444 L 117.588,36.3113 L 117.201,36.2527 L 116.809,36.2709 L 116.428,36.3651 L 116.073,36.5318 L 115.758,36.7644 L 115.494,37.0542 L 115.291,37.39 L 115.158,37.7588 L 115.1,38.1464 L 115.118,38.5381 L 115.212,38.9187 L 115.379,39.2735 L 115.873,40.1031 L 116.345,40.9268 L 116.803,41.7592 L 117.247,42.6003 L 117.677,43.4498 L 118.092,44.3076 L 118.493,45.1735 L 118.88,46.0474 L 119.252,46.9291 L 119.609,47.8185 L 119.951,48.7154 L 120.278,49.6197 L 120.59,50.5311 L 120.886,51.4497 L 121.167,52.3751 L 121.431,53.3073 L 121.68,54.2461 L 121.913,55.1913 L 122.129,56.1429 L 122.329,57.1006 L 122.512,58.0644 L 122.679,59.034 L 122.829,60.0093 L 122.962,60.9902 L 123.077,61.9765 L 123.175,62.9681 L 123.256,63.9649 L 123.319,64.9666 L 123.365,65.9732 L 123.392,66.9845 L 123.401,68.0004 L 123.392,69.0187 L 123.364,70.0324 L 123.319,71.0413 L 123.256,72.0454 L 123.174,73.0445 L 123.076,74.0384 L 122.96,75.027 L 122.826,76.0101 L 122.676,76.9876 L 122.508,77.9594 L 122.324,78.9253 L 122.123,79.8851 L 121.906,80.8388 L 121.672,81.7861 L 121.422,82.7269 L 121.156,83.661 L 120.875,84.5884 L 120.577,85.5088 L 120.264,86.4221 L 119.936,87.3282 L 119.592,88.2269 L 119.233,89.118 L 118.86,90.0013 L 118.471,90.8769 L 118.068,91.7444 L 117.651,92.6037 L 117.219,93.4547 L 116.773,94.2972 L 116.313,95.131 L 115.839,95.956 L 115.351,96.7721 L 114.85,97.5791 L 114.336,98.3768 L 113.808,99.165 L 113.267,99.9437 L 112.714,100.713 L 112.147,101.472 L 111.568,102.221 L 110.977,102.959 L 110.373,103.688 L 109.757,104.405 L 109.129,105.113 L 108.49,105.809 L 107.839,106.494 L 107.176,107.168 L 106.502,107.831 L 105.816,108.482 L 105.12,109.122 L 104.413,109.749 L 103.695,110.365 L 102.967,110.969 L 102.228,111.56 L 101.479,112.139 L 100.72,112.706 L 99.9508,113.259 L 99.1721,113.8 L 98.3838,114.328 L 97.586,114.842 L 96.779,115.343 L 95.9628,115.831 L 95.1377,116.304 L 94.3038,116.764 L 93.4612,117.21 L 92.6101,117.642 L 91.7507,118.06 L 90.8832,118.463 L 90.0076,118.851 L 89.1241,119.225 L 88.2329,119.583 L 87.3342,119.927 L 86.4281,120.255 L 85.5147,120.568 L 84.5942,120.866 L 83.6667,121.148 L 82.7325,121.413 L 81.7916,121.663 L 80.8442,121.897 L 79.8905,122.114 L 78.9306,122.315 L 77.9646,122.499 L 76.9927,122.667 L 76.0151,122.817 L 75.0319,122.951 L 74.0432,123.067 L 73.0492,123.165 L 72.0501,123.247 L 71.0459,123.31 L 70.0368,123.355 L 69.0231,123.383 L 68.0047,123.392 L 66.9863,123.383 L 65.9725,123.355 L 64.9635,123.31 L 63.9593,123.247 L 62.9602,123.165 L 61.9662,123.067 L 60.9775,122.951 L 59.9943,122.817 L 59.0167,122.667 L 58.0448,122.499 L 57.0788,122.315 L 56.1189,122.114 L 55.1652,121.897 L 54.2178,121.663 L 53.2769,121.413 L 52.3426,121.148 L 51.4152,120.866 L 50.4947,120.568 L 49.5813,120.255 L 48.6752,119.927 L 47.7764,119.583 L 46.8852,119.225 L 46.0018,118.851 L 45.1262,118.463 L 44.2586,118.06 L 43.3992,117.642 L 42.5482,117.21 L 41.7056,116.764 L 40.8717,116.304 L 40.0466,115.831 L 39.2304,115.343 L 38.4234,114.842 L 37.6256,114.328 L 36.8373,113.8 L 36.0585,113.259 L 35.2896,112.706 L 34.5305,112.139 L 33.7815,111.56 L 33.0427,110.969 L 32.3143,110.365 L 31.5964,109.749 L 30.8893,109.122 L 30.193,108.482 L 29.5077,107.831 L 28.8336,107.168 L 28.1708,106.494 L 27.5195,105.809 L 26.8799,105.113 L 26.2521,104.405 L 25.6362,103.688 L 25.0325,102.959 L 24.4411,102.221 L 23.862,101.472 L 23.2956,100.713 L 22.742,99.9437 L 22.2012,99.165 L 21.6735,98.3768 L 21.1591,97.5791 L 20.658,96.7721 L 20.1704,95.956 L 19.6966,95.131 L 19.2366,94.2972 L 18.7905,93.4547 L 18.3587,92.6037 L 17.9412,91.7444 L 17.5381,90.8769 L 17.1496,90.0013 L 16.776,89.118 L 16.4172,88.2269 L 16.0736,87.3282 L 15.7452,86.4221 L 15.4322,85.5088 L 15.1347,84.5884 L 14.853,83.661 L 14.5871,82.7269 L 14.3372,81.7861 L 14.1035,80.8388 L 13.8862,79.8851 L 13.6853,78.9253 L 13.5011,77.9594 L 13.3336,76.9876 L 13.1831,76.0101 L 13.0497,75.027 L 12.9336,74.0384 L 12.8349,73.0445 L 12.7538,72.0454 L 12.6905,71.0413 L 12.645,70.0324 L 12.6176,69.0187 L 12.6085,68.0004 L 12.6176,66.9821 L 12.645,65.9684 L 12.6905,64.9595 L 12.7538,63.9554 L 12.8349,62.9563 L 12.9336,61.9624 L 13.0497,60.9738 L 13.1831,59.9906 L 13.3336,59.0131 L 13.5011,58.0413 L 13.6853,57.0754 L 13.8862,56.1156 L 14.1035,55.1619 L 14.3372,54.2146 L 14.5871,53.2738 L 14.853,52.3397 L 15.1347,51.4123 L 15.4322,50.4919 L 15.7452,49.5785 L 16.0736,48.6725 L 16.4172,47.7738 L 16.776,46.8827 L 17.1496,45.9993 L 17.5381,45.1238 L 17.9412,44.2563 L 18.3587,43.3969 L 18.7905,42.546 L 19.2366,41.7035 L 19.6966,40.8696 L 20.1704,40.0446 L 20.658,39.2285 L 21.1591,38.4215 L 21.6735,37.6238 L 22.2012,36.8355 L 22.742,36.0569 L 23.2956,35.2879 L 23.862,34.5289 L 24.4411,33.78 L 25.0325,33.0412 L 25.6362,32.3129 L 26.2521,31.5951 L 26.8799,30.888 L 27.5195,30.1917 L 28.1708,29.5065 L 28.8336,28.8325 L 29.5077,28.1697 L 30.193,27.5185 L 30.8893,26.8789 L 31.5964,26.2511 L 32.3143,25.6353 L 33.0427,25.0316 L 33.7815,24.4402 L 34.5305,23.8613 L 35.2896,23.2949 L 36.0586,22.7413 L 36.8373,22.2006 L 37.6256,21.6729 L 38.4234,21.1585 L 39.2304,20.6574 L 40.0466,20.1699 L 40.8717,19.6961 L 41.7056,19.2361 L 42.5482,18.7901 L 43.3992,18.3583 L 44.2586,17.9408 L 45.1262,17.5378 L 46.0018,17.1493 L 46.8852,16.7757 L 47.7764,16.417 L 48.6752,16.0734 L 49.5813,15.745 L 50.4947,15.432 L 51.4152,15.1346 L 52.3427,14.8528 L 53.2769,14.587 L 54.2178,14.3371 L 55.1652,14.1034 L 56.1189,13.8861 L 57.0788,13.6852 L 58.0448,13.501 L 59.0167,13.3336 L 59.9943,13.1831 L 60.9775,13.0497 L 61.9662,12.9336 L 62.9602,12.8349 L 63.9593,12.7538 L 64.9635,12.6905 L 65.9725,12.645 L 66.9863,12.6176 L 68.0046,12.6085 L 69.0343,12.6179 L 70.0591,12.6458 L 71.0792,12.6923 L 72.0942,12.757 L 73.1041,12.8399 L 74.1088,12.9408 L 75.1079,13.0594 L 76.1015,13.1957 L 77.0894,13.3494 L 78.0713,13.5205 L 79.0473,13.7087 L 80.017,13.9139 L 80.9803,14.1359 L 81.9372,14.3746 L 82.8874,14.6298 L 83.8308,14.9014 L 84.7672,15.1891 L 85.6964,15.4928 L 86.6184,15.8125 L 87.5329,16.1478 L 88.4399,16.4987 L 89.339,16.8649 L 90.2303,17.2464 L 91.1135,17.6429 L 91.9884,18.0544 L 92.8549,18.4806 L 93.7128,18.9214 L 94.5621,19.3766 L 95.4024,19.846 L 96.2337,20.3296 L 97.0706,20.8361 L 97.4243,21.0052 L 97.8042,21.1021 L 98.1957,21.123 L 98.5838,21.0671 L 98.9535,20.9366 L 99.2906,20.7365 L 99.5823,20.4744 L 99.8172,20.1605 L 99.9863,19.8068 L 100.083,19.4269 L 100.104,19.0354 L 100.048,18.6473 L 99.9177,18.2776 L 99.7176,17.9405 L 99.4555,17.6488 L 99.1416,17.4139 Z" fill="#0F0F0F" />
<path d="M 67.9998,104.052 L 67.9641,104.035 L 67.7157,103.914 L 67.437,103.774 L 67.1293,103.617 L 66.7937,103.441 L 66.4312,103.247 L 66.0431,103.033 L 65.6304,102.801 L 65.1943,102.549 L 64.736,102.277 L 64.2566,101.986 L 63.7571,101.674 L 63.2388,101.342 L 62.7027,100.99 L 62.15,100.617 L 61.5819,100.223 L 60.9993,99.8078 L 60.4036,99.3711 L 59.7957,98.9127 L 59.1769,98.4325 L 58.5482,97.9301 L 57.9108,97.4054 L 57.2657,96.8581 L 56.6141,96.288 L 55.9571,95.6949 L 55.2958,95.0786 L 54.6314,94.4388 L 53.9648,93.7752 L 53.2973,93.0878 L 52.63,92.3761 L 51.9638,91.6401 L 51.3,90.8794 L 50.6396,90.0939 L 49.9836,89.2832 L 49.3333,88.4472 L 48.6897,87.5856 L 48.0538,86.6982 L 47.4268,85.7846 L 46.8097,84.8447 L 46.2036,83.8782 L 45.6095,82.8848 L 45.0287,81.8643 L 44.462,80.8163 L 43.9107,79.7406 L 43.3757,78.6369 L 42.8582,77.5049 L 42.3593,76.3444 L 41.8799,75.1549 L 41.4213,73.9362 L 40.9844,72.6881 L 40.5705,71.4101 L 40.1805,70.102 L 39.8156,68.7634 L 39.4769,67.394 L 39.1655,65.9935 L 38.8825,64.5615 L 38.629,63.0978 L 38.4061,61.602 L 38.2151,60.0737 L 38.057,58.5127 L 37.933,56.9185 L 37.8441,55.291 L 37.7917,53.6297 L 37.7767,51.9343 L 37.8005,50.2046 L 37.8641,48.4401 L 37.9688,46.6407 L 38.0333,45.8348 L 38.3792,45.6361 L 38.386,45.6322 L 39.6152,44.9199 L 39.6211,44.9165 L 40.8208,44.2159 L 40.8257,44.213 L 41.997,43.5245 L 42.0009,43.5222 L 43.1444,42.8465 L 43.1472,42.8449 L 44.264,42.1826 L 45.3566,41.5333 L 46.4224,40.8997 L 47.4625,40.2821 L 48.4779,39.6812 L 49.4695,39.0976 L 50.4378,38.532 L 51.3838,37.9849 L 52.3082,37.4571 L 53.2116,36.9491 L 54.0949,36.4616 L 54.9587,35.9952 L 55.8038,35.5505 L 56.6308,35.1281 L 57.4404,34.7285 L 58.2333,34.3523 L 59.0101,34 L 59.7716,33.6721 L 60.5184,33.369 L 61.2512,33.091 L 61.9707,32.8386 L 62.6777,32.6119 L 63.373,32.4114 L 64.0574,32.237 L 64.7321,32.0891 L 65.398,31.9677 L 66.0563,31.873 L 66.7084,31.8051 L 67.3557,31.7642 L 67.9911,31.7506 L 68.9167,31.7786 L 69.8407,31.8609 L 70.7768,31.9975 L 71.7287,32.1878 L 72.6998,32.4316 L 73.6928,32.7282 L 74.7103,33.0773 L 75.784,33.4892 L 76.1621,33.5931 L 76.5531,33.6212 L 76.9422,33.5725 L 77.3142,33.4488 L 77.655,33.255 L 77.9514,32.9983 L 78.1921,32.6888 L 78.3677,32.3383 L 78.4716,31.9602 L 78.4997,31.5692 L 78.451,31.1801 L 78.3273,30.8081 L 78.1335,30.4673 L 77.8768,30.1709 L 77.5673,29.9302 L 77.2168,29.7546 L 76.1095,29.3298 L 76.0421,29.3053 L 74.9527,28.9316 L 74.8763,28.9071 L 73.8022,28.5862 L 73.7166,28.5627 L 72.6553,28.2963 L 72.5606,28.275 L 71.5095,28.0648 L 71.4061,28.047 L 70.3627,27.8948 L 70.2516,27.8817 L 69.2134,27.7891 L 69.096,27.7821 L 68.0603,27.7509 L 67.9574,27.7505 L 67.2287,27.766 L 67.145,27.7695 L 66.4154,27.8156 L 66.3345,27.8224 L 65.6031,27.8986 L 65.5254,27.9082 L 64.7913,28.0138 L 64.7175,28.0259 L 63.9798,28.1603 L 63.9102,28.1743 L 63.168,28.337 L 63.1028,28.3525 L 62.3553,28.5429 L 62.2945,28.5594 L 61.5408,28.7768 L 61.4846,28.7939 L 60.7238,29.0378 L 60.6721,29.0551 L 59.9032,29.3249 L 59.856,29.3421 L 59.0782,29.6372 L 59.0353,29.654 L 58.2476,29.9737 L 58.2088,29.99 L 57.4104,30.3338 L 57.3755,30.3492 L 56.5655,30.7165 L 56.5342,30.7311 L 55.7118,31.1213 L 55.684,31.1347 L 54.8481,31.5472 L 54.8235,31.5596 L 53.9734,31.9938 L 53.9518,32.005 L 53.0865,32.4604 L 53.0677,32.4704 L 52.1864,32.9463 L 52.1701,32.9551 L 51.2719,33.4509 L 51.2581,33.4586 L 50.3419,33.9737 L 50.3304,33.9802 L 49.3955,34.5141 L 49.3861,34.5195 L 48.4316,35.0715 L 48.4241,35.0759 L 47.4491,35.6454 L 47.4433,35.6487 L 46.4469,36.2352 L 46.4429,36.2376 L 45.4242,36.8404 L 45.4217,36.8419 L 44.3798,37.4605 L 43.3129,38.0948 L 42.2229,38.7425 L 41.1083,39.4036 L 39.968,40.0773 L 38.8012,40.7632 L 37.6068,41.4607 L 36.3839,42.1693 L 35.1278,42.8906 L 34.8122,43.1151 L 34.5458,43.3961 L 34.3385,43.7233 L 34.1982,44.0842 L 34.1301,44.4654 L 33.9798,46.3433 L 33.9768,46.3867 L 33.8696,48.2299 L 33.8675,48.274 L 33.8023,50.0827 L 33.8012,50.1273 L 33.7768,51.9019 L 33.7767,51.947 L 33.792,53.6876 L 33.7929,53.7331 L 33.8468,55.4401 L 33.8488,55.486 L 33.9402,57.1596 L 33.9432,57.2058 L 34.0709,58.8462 L 34.075,58.8926 L 34.2378,60.5001 L 34.2431,60.5466 L 34.44,62.1215 L 34.4463,62.1681 L 34.6761,63.7105 L 34.6836,63.7571 L 34.9452,65.2674 L 34.9538,65.3139 L 35.246,66.7923 L 35.2557,66.8386 L 35.5774,68.2854 L 35.5882,68.3315 L 35.9383,69.7468 L 35.9502,69.7926 L 36.3275,71.1767 L 36.3405,71.2221 L 36.7439,72.5754 L 36.7579,72.6203 L 37.1863,73.943 L 37.2013,73.9873 L 37.6535,75.2796 L 37.6694,75.3234 L 38.1444,76.5854 L 38.1612,76.6286 L 38.6578,77.8608 L 38.6754,77.9031 L 39.1924,79.1057 L 39.2109,79.1473 L 39.7472,80.3205 L 39.7664,80.3613 L 40.3209,81.5053 L 40.3408,81.5452 L 40.9124,82.6604 L 40.9329,82.6994 L 41.5204,83.7859 L 41.5415,83.824 L 42.1438,84.8822 L 42.1655,84.9193 L 42.7814,85.9493 L 42.8035,85.9854 L 43.432,86.9876 L 43.4545,87.0227 L 44.0944,87.9972 L 44.1173,88.0313 L 44.7674,88.9784 L 44.7906,89.0115 L 45.4498,89.9316 L 45.4732,89.9636 L 46.1404,90.8568 L 46.1641,90.8878 L 46.8382,91.7543 L 46.862,91.7844 L 47.5418,92.6245 L 47.5657,92.6535 L 48.2501,93.4676 L 48.2741,93.4956 L 48.9619,94.2838 L 48.986,94.3108 L 49.6761,95.0734 L 49.7001,95.0994 L 50.3915,95.8367 L 50.4155,95.8618 L 51.1069,96.5739 L 51.1308,96.598 L 51.8211,97.2853 L 51.8449,97.3086 L 52.533,97.9712 L 52.5566,97.9936 L 53.2415,98.6319 L 53.2649,98.6534 L 53.9453,99.2676 L 53.9685,99.2882 L 54.6433,99.8786 L 54.6663,99.8984 L 55.3343,100.465 L 55.3572,100.484 L 56.0173,101.028 L 56.0399,101.046 L 56.691,101.566 L 56.7133,101.584 L 57.3544,102.081 L 57.3764,102.098 L 58.0061,102.573 L 58.0279,102.589 L 58.6452,103.042 L 58.6667,103.057 L 59.2705,103.488 L 59.2917,103.503 L 59.8808,103.911 L 59.9017,103.925 L 60.475,104.312 L 60.4956,104.326 L 61.052,104.692 L 61.0722,104.705 L 61.6106,105.049 L 61.6305,105.062 L 62.1497,105.386 L 62.1692,105.398 L 62.6681,105.701 L 62.6873,105.713 L 63.1647,105.995 L 63.1836,106.007 L 63.6384,106.269 L 63.657,106.28 L 64.0881,106.523 L 64.1064,106.533 L 64.5126,106.756 L 64.5305,106.766 L 64.9108,106.97 L 64.9284,106.98 L 65.2815,107.165 L 65.2988,107.174 L 65.6237,107.34 L 65.6406,107.348 L 65.9361,107.496 L 65.9528,107.504 L 66.2177,107.634 L 66.2341,107.642 L 66.4674,107.753 L 66.4834,107.76 L 66.6839,107.854 L 66.6996,107.861 L 66.8662,107.937 L 66.8816,107.944 L 67.0132,108.002 L 67.0282,108.009 L 67.1236,108.051 L 67.1382,108.057 L 67.1962,108.082 L 67.2093,108.087 L 67.2289,108.095 L 67.6073,108.211 L 68.001,108.25 L 68.3948,108.211 L 68.773,108.095 L 68.8011,108.083 L 68.8168,108.076 L 68.8997,108.041 L 68.9173,108.033 L 69.0531,107.973 L 69.0714,107.965 L 69.2582,107.88 L 69.2769,107.872 L 69.5127,107.762 L 69.5319,107.753 L 69.8148,107.618 L 69.8344,107.608 L 70.1624,107.447 L 70.1825,107.437 L 70.5537,107.25 L 70.5742,107.239 L 70.9866,107.025 L 71.0076,107.014 L 71.4593,106.772 L 71.4807,106.76 L 71.9697,106.491 L 71.9917,106.478 L 72.516,106.181 L 72.5384,106.168 L 73.0962,105.842 L 73.1191,105.828 L 73.7084,105.473 L 73.7318,105.459 L 74.3506,105.074 L 74.3744,105.059 L 75.0208,104.644 L 75.0451,104.629 L 75.7172,104.184 L 75.7419,104.167 L 76.4377,103.692 L 76.4628,103.674 L 77.1804,103.167 L 77.206,103.149 L 77.9433,102.611 L 77.9693,102.591 L 78.7245,102.021 L 78.751,102.001 L 79.5221,101.398 L 79.5489,101.376 L 80.334,100.741 L 80.3612,100.718 L 81.1582,100.049 L 81.1858,100.025 L 81.9929,99.3226 L 82.0208,99.2978 L 82.836,98.5607 L 82.8642,98.5348 L 83.6856,97.7631 L 83.714,97.7359 L 84.5396,96.9291 L 84.5682,96.9006 L 85.3961,96.0583 L 85.4248,96.0285 L 86.253,95.1503 L 86.2818,95.1191 L 87.1085,94.2045 L 87.1372,94.172 L 87.9603,93.2206 L 87.9891,93.1866 L 88.8066,92.1979 L 88.8352,92.1625 L 89.6454,91.1362 L 89.6738,91.0994 L 90.4745,90.0349 L 90.5026,89.9966 L 91.292,88.8936 L 91.3198,88.8539 L 92.0958,87.7119 L 92.1231,87.6707 L 92.884,86.4894 L 92.9107,86.4466 L 93.6544,85.2255 L 93.6805,85.1814 L 94.405,83.9199 L 94.4303,83.8744 L 95.1338,82.5723 L 95.1583,82.5255 L 95.8387,81.1822 L 95.8623,81.1341 L 96.5177,79.7493 L 96.5402,79.6999 L 97.1687,78.2731 L 97.1901,78.2226 L 97.7897,76.7534 L 97.8099,76.7018 L 98.3787,75.1897 L 98.3976,75.1372 L 98.9336,73.5818 L 98.9512,73.5285 L 99.4525,71.9294 L 99.4686,71.8753 L 99.9332,70.232 L 99.9479,70.1773 L 100.374,68.4895 L 100.432,68.1017 L 100.414,67.7101 L 100.319,67.3296 L 100.152,66.9749 L 99.919,66.6596 L 99.629,66.3957 L 99.2931,66.1936 L 98.9242,66.0608 L 98.5364,66.0026 L 98.1448,66.0211 L 97.7643,66.1157 L 97.4096,66.2827 L 97.0943,66.5157 L 96.8304,66.8057 L 96.6283,67.1416 L 96.4955,67.5105 L 96.0764,69.1709 L 95.6272,70.7598 L 95.1427,72.3051 L 94.625,73.8076 L 94.0758,75.2676 L 93.497,76.6858 L 92.8905,78.0626 L 92.2582,79.3987 L 91.6019,80.6944 L 90.9234,81.9503 L 90.2247,83.1669 L 89.5075,84.3447 L 88.7737,85.484 L 88.0251,86.5854 L 87.2637,87.6493 L 86.4912,88.6761 L 85.7096,89.6663 L 84.9207,90.6203 L 84.1264,91.5385 L 83.3285,92.4213 L 82.5289,93.2691 L 81.7296,94.0823 L 80.9324,94.8613 L 80.1392,95.6065 L 79.352,96.3183 L 78.5725,96.997 L 77.8028,97.6432 L 77.0448,98.2571 L 76.3004,98.8391 L 75.5714,99.3897 L 74.8599,99.9092 L 74.1678,100.398 L 73.497,100.857 L 72.8494,101.285 L 72.2271,101.684 L 71.6318,102.054 L 71.0656,102.395 L 70.5305,102.708 L 70.0283,102.993 L 69.561,103.251 L 69.1306,103.481 L 68.739,103.685 L 68.3881,103.862 L 68.08,104.014 Z" fill="black" />
<path d="M 67.9999,86.8738 L 67.7149,86.676 L 67.337,86.4048 L 66.9203,86.0953 L 66.4682,85.7471 L 65.984,85.3603 L 65.4711,84.9347 L 64.9328,84.4702 L 64.3727,83.9666 L 63.7938,83.4238 L 63.1997,82.8418 L 62.5937,82.2203 L 61.9789,81.5594 L 61.3589,80.8589 L 60.7367,80.1187 L 60.1157,79.3386 L 59.4992,78.5186 L 58.8903,77.6585 L 58.2923,76.7581 L 57.7084,75.8174 L 57.1417,74.836 L 56.5954,73.8139 L 56.0726,72.7507 L 55.5765,71.6462 L 55.1102,70.5 L 54.6767,69.3119 L 54.2793,68.0813 L 53.9211,66.8079 L 53.6052,65.4912 L 53.3348,64.1306 L 53.1131,62.7257 L 52.9434,61.2757 L 52.8289,59.7802 L 52.7731,58.2385 L 52.7793,56.65 L 52.851,55.0141 L 52.9068,54.3458 L 53.3603,54.0896 L 53.3882,54.0735 L 54.6673,53.3235 L 54.6922,53.3087 L 55.883,52.5871 L 55.9039,52.5742 L 57.0139,51.8828 L 57.03,51.8727 L 58.0667,51.2131 L 58.0768,51.2067 L 59.0476,50.5809 L 59.0505,50.579 L 59.96,49.9905 L 60.8106,49.4444 L 61.6065,48.9442 L 62.3533,48.4922 L 63.0564,48.0901 L 63.7214,47.739 L 64.3545,47.4389 L 64.9629,47.1888 L 65.5551,46.9867 L 66.1419,46.8305 L 66.7359,46.7183 L 67.3509,46.6498 L 67.9864,46.6268 L 68.8814,46.6714 L 69.7087,46.7991 L 70.5159,47.0095 L 71.3354,47.3066 L 72.1931,47.696 L 73.1088,48.1811 L 74.1221,48.7756 L 74.4781,48.9398 L 74.8593,49.0315 L 75.251,49.0471 L 75.6383,48.9859 L 76.0062,48.8503 L 76.3406,48.6456 L 76.6286,48.3796 L 76.8592,48.0625 L 77.0234,47.7065 L 77.1151,47.3253 L 77.1307,46.9336 L 77.0695,46.5463 L 76.9339,46.1784 L 76.7292,45.844 L 76.4632,45.556 L 76.1461,45.3254 L 75.0954,44.709 L 75.0196,44.6668 L 74.0116,44.1328 L 73.9022,44.0791 L 72.9176,43.632 L 72.7726,43.5729 L 71.7921,43.2174 L 71.6148,43.1623 L 70.619,42.9027 L 70.4197,42.8615 L 69.3893,42.7024 L 69.1838,42.6815 L 68.0995,42.6275 L 67.9277,42.6263 L 67.1316,42.6551 L 66.9823,42.6661 L 66.2177,42.7513 L 66.068,42.7737 L 65.3273,42.9136 L 65.1839,42.9462 L 64.4597,43.139 L 64.3285,43.1788 L 63.6133,43.4228 L 63.4986,43.4659 L 62.7849,43.7593 L 62.6888,43.8018 L 61.9692,44.1429 L 61.8921,44.1815 L 61.159,44.5685 L 61.0999,44.601 L 60.3459,45.0322 L 60.3031,45.0574 L 59.5207,45.531 L 59.4922,45.5486 L 58.6739,46.0629 L 58.6576,46.0733 L 57.796,46.6265 L 57.7901,46.6303 L 56.879,47.2197 L 55.9146,47.8414 L 54.891,48.4926 L 53.7995,49.1725 L 52.6315,49.8803 L 51.3788,50.6149 L 50.0179,51.3837 L 49.6997,51.6068 L 49.4306,51.8874 L 49.2209,52.2146 L 49.0785,52.5763 L 49.0086,52.9586 L 48.8615,54.7208 L 48.8565,54.7997 L 48.7814,56.5149 L 48.7795,56.5946 L 48.773,58.263 L 48.7743,58.3432 L 48.833,59.9651 L 48.8375,60.0453 L 48.9581,61.6209 L 48.9658,61.7008 L 49.1448,63.2304 L 49.1557,63.3096 L 49.3898,64.7933 L 49.4037,64.8714 L 49.6896,66.3095 L 49.7064,66.3862 L 50.0405,67.7788 L 50.06,67.8538 L 50.4391,69.2013 L 50.4612,69.2743 L 50.8818,70.5768 L 50.9061,70.6475 L 51.3649,71.9053 L 51.3913,71.9736 L 51.8849,73.1868 L 51.913,73.2525 L 52.4381,74.4214 L 52.4677,74.4844 L 53.0208,75.6093 L 53.0517,75.6695 L 53.6295,76.7505 L 53.6614,76.8079 L 54.2604,77.8452 L 54.2931,77.8998 L 54.91,78.8938 L 54.9433,78.9455 L 55.5748,79.8963 L 55.6084,79.9453 L 56.251,80.8531 L 56.2848,80.8994 L 56.9352,81.7645 L 56.969,81.8082 L 57.6238,82.6307 L 57.6575,82.6719 L 58.3132,83.4521 L 58.3467,83.4909 L 59.0001,84.2291 L 59.0332,84.2656 L 59.6809,84.9619 L 59.7135,84.9962 L 60.3521,85.6509 L 60.3842,85.6831 L 61.0102,86.2964 L 61.0418,86.3267 L 61.6519,86.8988 L 61.6829,86.9272 L 62.2737,87.4583 L 62.304,87.485 L 62.8722,87.9754 L 62.9018,88.0005 L 63.4439,88.4504 L 63.4728,88.4739 L 63.9855,88.8835 L 64.0137,88.9056 L 64.4936,89.2751 L 64.5211,89.2959 L 64.9648,89.6256 L 64.9915,89.645 L 65.3957,89.9351 L 65.4217,89.9534 L 65.783,90.2041 L 65.8082,90.2213 L 66.1231,90.4328 L 66.1476,90.449 L 66.4129,90.6215 L 66.4366,90.6367 L 66.6488,90.7705 L 66.6718,90.7847 L 66.8275,90.88 L 66.8495,90.8933 L 66.9455,90.9503 L 66.9649,90.9617 L 66.9976,90.9807 L 67.381,91.1518 L 67.7916,91.2391 L 68.2114,91.2388 L 68.6219,91.1508 L 69.005,90.9792 L 69.0515,90.9521 L 69.0749,90.9383 L 69.2106,90.8569 L 69.2372,90.8407 L 69.4564,90.7047 L 69.4842,90.687 L 69.7811,90.4959 L 69.8101,90.4769 L 70.1789,90.2302 L 70.209,90.2097 L 70.644,89.9072 L 70.6751,89.8852 L 71.1705,89.5264 L 71.2027,89.5027 L 71.7528,89.0873 L 71.786,89.0617 L 72.3851,88.5894 L 72.4193,88.5618 L 73.0616,88.0321 L 73.0968,88.0023 L 73.7765,87.4149 L 73.8127,87.3827 L 74.524,86.7372 L 74.5612,86.7025 L 75.2984,85.9985 L 75.3365,85.9611 L 76.0938,85.1982 L 76.1327,85.158 L 76.9044,84.3358 L 76.9439,84.2924 L 77.7242,83.4106 L 77.7642,83.364 L 78.5474,82.4222 L 78.5878,82.3721 L 79.3681,81.3698 L 79.4085,81.3161 L 80.1802,80.2531 L 80.2205,80.1956 L 80.9778,79.0714 L 81.0176,79.0099 L 81.7547,77.8242 L 81.7937,77.7588 L 82.505,76.5112 L 82.5428,76.4417 L 83.2225,75.1318 L 83.2587,75.0583 L 83.9009,73.6857 L 83.9352,73.6083 L 84.5342,72.1727 L 84.566,72.0915 L 85.1162,70.5925 L 85.1451,70.5078 L 85.6406,68.945 L 85.6662,68.8572 L 86.1012,67.2301 L 86.1649,66.8432 L 86.1518,66.4514 L 86.0626,66.0696 L 85.9006,65.7126 L 85.6721,65.394 L 85.3858,65.1261 L 85.0527,64.9193 L 84.6857,64.7814 L 84.2988,64.7177 L 83.907,64.7308 L 83.5252,64.82 L 83.1682,64.982 L 82.8496,65.2105 L 82.5817,65.4968 L 82.3749,65.8299 L 82.237,66.1969 L 81.8138,67.7798 L 81.3456,69.2564 L 80.8259,70.6725 L 80.26,72.0289 L 79.653,73.326 L 79.0105,74.5644 L 78.3377,75.7446 L 77.6399,76.8669 L 76.9226,77.9316 L 76.1913,78.939 L 75.4514,79.8893 L 74.7083,80.7828 L 73.9678,81.6197 L 73.2353,82.4001 L 72.5165,83.1242 L 71.8169,83.7923 L 71.1424,84.4045 L 70.4986,84.9609 L 69.8912,85.4619 L 69.3259,85.9076 L 68.8085,86.2982 L 68.3447,86.634 Z" fill="black" />
<path d="M 85,49 L 84.6246,49.0355 L 84.2626,49.1409 L 83.9268,49.3123 L 83.6292,49.5437 L 83.3802,49.8269 L 83.1888,50.1517 L 83.0618,50.5067 L 83.0037,50.8792 L 83.0165,51.256 L 83.0997,51.6237 L 83.2506,51.9693 L 83.4636,52.2804 L 90.5471,60.7804 L 90.8264,61.0555 L 91.154,61.2709 L 91.5174,61.4182 L 91.9025,61.4918 L 92.2945,61.4888 L 92.6785,61.4095 L 93.0395,61.2567 L 93.3639,61.0364 L 93.639,60.7571 L 93.8544,60.4295 L 94.0017,60.0661 L 94.0753,59.681 L 94.0723,59.289 L 93.993,58.905 L 93.8402,58.544 L 93.6199,58.2196 L 89.2701,53 L 106.25,53 L 106.64,52.9616 L 107.015,52.8478 L 107.361,52.6629 L 107.664,52.4142 L 107.913,52.1111 L 108.098,51.7654 L 108.212,51.3902 L 108.25,51 L 108.212,50.6098 L 108.098,50.2346 L 107.913,49.8889 L 107.664,49.5858 L 107.361,49.3371 L 107.015,49.1522 L 106.64,49.0384 L 106.25,49 Z" fill="black" />
<path d="M 106.25,40.25 L 106.625,40.2145 L 106.987,40.1091 L 107.323,39.9377 L 107.621,39.7063 L 107.87,39.4231 L 108.061,39.0983 L 108.188,38.7433 L 108.246,38.3708 L 108.234,37.994 L 108.15,37.6263 L 107.999,37.2807 L 107.786,36.9696 L 100.703,28.4696 L 100.424,28.1945 L 100.096,27.9791 L 99.7326,27.8318 L 99.3475,27.7582 L 98.9555,27.7612 L 98.5715,27.8405 L 98.2105,27.9933 L 97.8861,28.2136 L 97.611,28.4929 L 97.3956,28.8205 L 97.2483,29.1839 L 97.1747,29.569 L 97.1777,29.961 L 97.257,30.345 L 97.4098,30.706 L 97.6301,31.0304 L 101.98,36.25 L 85,36.25 L 84.6098,36.2884 L 84.2346,36.4022 L 83.8889,36.5871 L 83.5858,36.8358 L 83.3371,37.1389 L 83.1522,37.4846 L 83.0384,37.8598 L 83,38.25 L 83.0384,38.6402 L 83.1522,39.0154 L 83.3371,39.3611 L 83.5858,39.6642 L 83.8889,39.9129 L 84.2346,40.0978 L 84.6098,40.2116 L 85,40.25 Z" fill="black" />
</svg>