<?xml version='1.0' encoding='utf-8'?>
<svg xmlns="http://www.w3.org/2000/svg" width="164" height="164" viewBox="0 0 164 164" fill="none">
<path d="M 135.069,67.3581 L 36.0627,26.7169 L 35.6102,26.5584 L 35.1234,26.416 L 34.2521,26.2511 L 33.7494,26.2059 L 32.8643,26.2125 L 32.3598,26.2654 L 31.4924,26.4429 L 31.0073,26.5924 L 30.1922,26.933 L 29.747,27.1721 L 29.0103,27.6657 L 28.6181,27.9878 L 27.9883,28.6174 L 27.6662,29.0094 L 27.1726,29.7458 L 26.9335,30.1908 L 26.5922,31.0071 L 26.4427,31.4921 L 26.2652,32.3605 L 26.2124,32.8652 L 26.2061,33.7515 L 26.2516,34.2545 L 26.4165,35.124 L 26.559,35.611 L 26.7203,36.0701 L 67.5251,134.983 L 67.931,135.75 L 68.4749,136.427 L 69.1371,136.988 L 69.8936,137.414 L 70.7171,137.689 L 71.5777,137.803 L 72.4443,137.751 L 73.2855,137.537 L 74.0708,137.167 L 74.7719,136.655 L 75.3633,136.019 L 75.8236,135.283 L 95.6461,95.6383 L 135.386,75.655 L 136.121,75.1931 L 136.755,74.6004 L 137.265,73.8984 L 137.633,73.1125 L 137.846,72.271 L 137.895,71.4045 L 137.78,70.5443 L 137.503,69.7216 L 137.076,68.9661 L 136.514,68.3051 L 135.836,67.7625 Z M 36.9526,36.9461 L 122.345,71.9989 L 90.1931,88.1666 L 89.3751,88.6942 L 88.6876,89.3832 L 88.162,90.2024 L 72.141,122.244 Z" fill="black" fill-rule="evenodd" />
<path d="M 124.911,131.374 L 125.603,131.94 L 126.392,132.361 L 127.249,132.62 L 128.139,132.706 L 129.029,132.618 L 129.884,132.357 L 130.673,131.935 L 131.364,131.367 L 131.93,130.675 L 132.351,129.886 L 132.61,129.029 L 132.696,128.139 L 132.608,127.249 L 132.347,126.394 L 131.925,125.605 L 131.357,124.914 L 96.8494,90.4795 L 96.1574,89.9129 L 95.3682,89.4921 L 94.512,89.2333 L 93.6218,89.1466 L 92.7318,89.2352 L 91.8762,89.4957 L 91.0878,89.9182 L 90.397,90.4863 L 89.8304,91.1783 L 89.4096,91.9675 L 89.1508,92.8237 L 89.0641,93.7139 L 89.1527,94.6039 L 89.4132,95.4595 L 89.8357,96.2479 L 90.4038,96.9387 Z" fill="black" />
</svg>