<?xml version='1.0' encoding='utf-8'?>
<svg xmlns="http://www.w3.org/2000/svg" width="90" height="90" viewBox="0 0 90 90" fill="none">
<path d="M 28.125,18 L 28.1535,17.9972 L 61.8465,17.9972 L 61.875,18 L 61.9035,17.9972 L 64.6608,17.9972 L 65.6641,18.0449 L 66.6128,18.1811 L 67.5304,18.4027 L 68.4132,18.7057 L 69.2573,19.0858 L 70.0586,19.5389 L 70.8127,20.0608 L 71.5154,20.6474 L 72.1623,21.2942 L 72.7488,21.9969 L 73.2708,22.7511 L 73.7239,23.5524 L 74.104,24.3965 L 74.407,25.2793 L 74.6286,26.1969 L 74.7648,27.1456 L 74.8125,28.1489 L 74.8125,67.4705 L 74.7648,68.4738 L 74.6286,69.4225 L 74.407,70.3402 L 74.104,71.223 L 73.7239,72.0671 L 73.2708,72.8684 L 72.7488,73.6226 L 72.1623,74.3253 L 71.5154,74.9721 L 70.8127,75.5586 L 70.0586,76.0806 L 69.2573,76.5337 L 68.4132,76.9138 L 67.5304,77.2167 L 66.6128,77.4383 L 65.6641,77.5745 L 64.6608,77.6222 L 57.6562,77.6222 L 57.4367,77.6438 L 57.2257,77.7078 L 57.0312,77.8118 L 56.8607,77.9517 L 56.7208,78.1222 L 56.6168,78.3167 L 56.5528,78.5277 L 56.5312,78.7472 L 56.5528,78.9667 L 56.6168,79.1777 L 56.7208,79.3722 L 56.8607,79.5427 L 57.0312,79.6826 L 57.2257,79.7866 L 57.4367,79.8506 L 57.6562,79.8722 L 64.6875,79.8722 L 64.7409,79.8709 L 65.8243,79.8194 L 65.9308,79.8093 L 66.9851,79.6579 L 67.0894,79.6379 L 68.1098,79.3914 L 68.2108,79.362 L 69.1927,79.0251 L 69.2895,78.9868 L 70.2281,78.5641 L 70.3199,78.5176 L 71.2105,78.014 L 71.297,77.9598 L 72.1349,77.3799 L 72.2156,77.3185 L 72.9961,76.667 L 73.0707,76.5988 L 73.789,75.8805 L 73.8572,75.8059 L 74.5087,75.0254 L 74.5701,74.9448 L 75.15,74.1069 L 75.2042,74.0204 L 75.7078,73.1298 L 75.7544,73.0379 L 76.177,72.0993 L 76.2153,72.0025 L 76.5522,71.0206 L 76.5817,70.9196 L 76.8282,69.8992 L 76.8482,69.7949 L 76.9996,68.7405 L 77.0097,68.6341 L 77.0612,67.5506 L 77.0625,67.4972 L 77.0625,28.1222 L 77.0612,28.0688 L 77.0097,26.9853 L 76.9996,26.8789 L 76.8482,25.8246 L 76.8282,25.7203 L 76.5817,24.6998 L 76.5522,24.5988 L 76.2153,23.617 L 76.177,23.5202 L 75.7544,22.5816 L 75.7078,22.4897 L 75.2042,21.5991 L 75.15,21.5126 L 74.5701,20.6747 L 74.5087,20.594 L 73.8572,19.8136 L 73.789,19.739 L 73.0707,19.0206 L 72.9961,18.9525 L 72.2156,18.301 L 72.1349,18.2396 L 71.297,17.6597 L 71.2106,17.6055 L 70.3199,17.1018 L 70.2281,17.0553 L 69.2895,16.6327 L 69.1927,16.5944 L 68.2108,16.2575 L 68.1098,16.228 L 67.0894,15.9815 L 66.9851,15.9615 L 65.9308,15.8101 L 65.8243,15.8 L 64.7409,15.7485 L 64.6875,15.7472 L 63,15.7472 L 63,8.4375 L 62.9784,8.21802 L 62.9144,8.00698 L 62.8104,7.81248 L 62.6705,7.642 L 62.5,7.5021 L 62.3055,7.39814 L 62.0945,7.33412 L 61.875,7.3125 L 61.6555,7.33412 L 61.4445,7.39814 L 61.25,7.5021 L 61.0795,7.642 L 60.9396,7.81248 L 60.8356,8.00698 L 60.7716,8.21802 L 60.75,8.4375 L 60.75,15.7472 L 29.25,15.7472 L 29.25,8.4375 L 29.2284,8.21802 L 29.1644,8.00698 L 29.0604,7.81248 L 28.9205,7.642 L 28.75,7.5021 L 28.5555,7.39814 L 28.3445,7.33412 L 28.125,7.3125 L 27.9055,7.33412 L 27.6945,7.39814 L 27.5,7.5021 L 27.3295,7.642 L 27.1896,7.81248 L 27.0856,8.00698 L 27.0216,8.21802 L 27,8.4375 L 27,15.7472 L 25.3125,15.7472 L 25.2591,15.7485 L 24.1756,15.8 L 24.0692,15.8101 L 23.0149,15.9615 L 22.9106,15.9815 L 21.8901,16.228 L 21.7891,16.2575 L 20.8073,16.5944 L 20.7105,16.6327 L 19.7719,17.0553 L 19.68,17.1018 L 18.7894,17.6055 L 18.7029,17.6597 L 17.865,18.2396 L 17.7843,18.301 L 17.0039,18.9525 L 16.9293,19.0206 L 16.2109,19.739 L 16.1428,19.8136 L 15.4913,20.594 L 15.4299,20.6747 L 14.85,21.5126 L 14.7958,21.5991 L 14.2921,22.4897 L 14.2456,22.5816 L 13.823,23.5202 L 13.7847,23.617 L 13.4478,24.5988 L 13.4183,24.6998 L 13.1718,25.7203 L 13.1518,25.8246 L 13.0004,26.8789 L 12.9903,26.9853 L 12.9388,28.0688 L 12.9375,28.1222 L 12.9375,67.4972 L 12.9388,67.5506 L 12.9903,68.6341 L 13.0004,68.7405 L 13.1518,69.7949 L 13.1718,69.8992 L 13.4183,70.9196 L 13.4478,71.0206 L 13.7847,72.0025 L 13.823,72.0993 L 14.2456,73.0379 L 14.2921,73.1298 L 14.7958,74.0204 L 14.85,74.1069 L 15.4299,74.9448 L 15.4913,75.0254 L 16.1428,75.8059 L 16.211,75.8805 L 16.9293,76.5988 L 17.0039,76.667 L 17.7844,77.3185 L 17.865,77.3799 L 18.7029,77.9598 L 18.7894,78.014 L 19.68,78.5176 L 19.7719,78.5641 L 20.7105,78.9868 L 20.8073,79.0251 L 21.7892,79.362 L 21.8901,79.3914 L 22.9106,79.6379 L 23.0149,79.6579 L 24.0692,79.8093 L 24.1756,79.8194 L 25.2591,79.8709 L 25.3125,79.8722 L 32.3438,79.8722 L 32.5633,79.8506 L 32.7743,79.7866 L 32.9688,79.6826 L 33.1393,79.5427 L 33.2792,79.3722 L 33.3832,79.1777 L 33.4472,78.9667 L 33.4688,78.7472 L 33.4472,78.5277 L 33.3832,78.3167 L 33.2792,78.1222 L 33.1393,77.9517 L 32.9688,77.8118 L 32.7743,77.7078 L 32.5633,77.6438 L 32.3438,77.6222 L 25.3392,77.6222 L 24.3359,77.5745 L 23.3872,77.4383 L 22.4696,77.2167 L 21.5868,76.9138 L 20.7427,76.5337 L 19.9414,76.0806 L 19.1872,75.5586 L 18.4845,74.9721 L 17.8377,74.3253 L 17.2511,73.6226 L 16.7292,72.8684 L 16.2761,72.0671 L 15.896,71.223 L 15.593,70.3402 L 15.3714,69.4225 L 15.2352,68.4738 L 15.1875,67.4705 L 15.1875,28.1489 L 15.2352,27.1456 L 15.3714,26.1969 L 15.593,25.2793 L 15.896,24.3965 L 16.2761,23.5524 L 16.7292,22.7511 L 17.2511,21.9969 L 17.8377,21.2942 L 18.4845,20.6474 L 19.1872,20.0608 L 19.9414,19.5389 L 20.7427,19.0858 L 21.5868,18.7057 L 22.4696,18.4027 L 23.3872,18.1811 L 24.3359,18.0449 L 25.3392,17.9972 L 28.0965,17.9972 Z M 47.5915,32.0323 L 47.8125,30.9375 L 47.5915,29.8427 L 46.9887,28.9488 L 46.0948,28.346 L 45,28.125 L 43.9052,28.346 L 43.0113,28.9488 L 42.4085,29.8427 L 42.1875,30.9375 L 42.4085,32.0323 L 43.0113,32.9262 L 43.9052,33.529 L 45,33.75 L 46.0948,33.529 L 46.9887,32.9262 Z M 45.2195,41.0841 L 45,41.0625 L 44.7805,41.0841 L 44.5695,41.1481 L 44.375,41.2521 L 44.2045,41.392 L 32.9545,52.642 L 32.8146,52.8125 L 32.7106,53.007 L 32.6466,53.218 L 32.625,53.4375 L 32.6466,53.657 L 32.7106,53.868 L 32.8146,54.0625 L 32.9545,54.233 L 33.125,54.3729 L 33.3195,54.4769 L 33.5305,54.5409 L 33.75,54.5625 L 33.9695,54.5409 L 34.1805,54.4769 L 34.375,54.3729 L 34.5455,54.233 L 43.875,44.9035 L 43.875,78.75 L 43.8966,78.9695 L 43.9606,79.1805 L 44.0646,79.375 L 44.2045,79.5455 L 44.375,79.6854 L 44.5695,79.7894 L 44.7805,79.8534 L 45,79.875 L 45.2195,79.8534 L 45.4305,79.7894 L 45.625,79.6854 L 45.7955,79.5455 L 45.9354,79.375 L 46.0394,79.1805 L 46.1034,78.9695 L 46.125,78.75 L 46.125,44.9035 L 55.4545,54.233 L 55.625,54.3729 L 55.8195,54.4769 L 56.0305,54.5409 L 56.25,54.5625 L 56.4695,54.5409 L 56.6805,54.4769 L 56.875,54.3729 L 57.0455,54.233 L 57.1854,54.0625 L 57.2894,53.868 L 57.3534,53.657 L 57.375,53.4375 L 57.3534,53.218 L 57.2894,53.007 L 57.1854,52.8125 L 57.0455,52.642 L 45.7955,41.392 L 45.625,41.2521 L 45.4305,41.1481 Z" fill="#0F0F0F" fill-rule="evenodd" />
</svg>