<?xml version='1.0' encoding='utf-8'?>
<svg xmlns="http://www.w3.org/2000/svg" width="136" height="136" viewBox="0 0 136 136" fill="none">
<path d="M 100.635,12.9119 L 99.6744,12.3529 L 98.703,11.8102 L 97.7212,11.284 L 96.7292,10.7744 L 95.7272,10.2815 L 94.7154,9.8057 L 93.694,9.34707 L 92.6631,8.90582 L 91.623,8.48215 L 90.5738,8.07625 L 89.5157,7.68831 L 88.4491,7.31853 L 87.3739,6.96709 L 86.2905,6.63419 L 85.1991,6.32002 L 84.0998,6.02477 L 82.9928,5.74864 L 81.8784,5.4918 L 80.7568,5.25446 L 79.6282,5.0368 L 78.4928,4.83901 L 77.3508,4.66127 L 76.2025,4.50377 L 75.048,4.36669 L 73.8876,4.25022 L 72.7215,4.15453 L 71.5499,4.0798 L 70.3731,4.0262 L 69.1913,3.99392 L 68.005,3.98313 L 66.831,3.9937 L 65.662,4.02528 L 64.4979,4.07771 L 63.3389,4.15084 L 62.1852,4.24447 L 61.0371,4.35845 L 59.8948,4.4926 L 58.7584,4.64673 L 57.6283,4.82069 L 56.5046,5.01428 L 55.3875,5.22733 L 54.2773,5.45965 L 53.174,5.71107 L 52.0781,5.9814 L 50.9895,6.27045 L 49.9086,6.57805 L 48.8356,6.904 L 47.7706,7.24813 L 46.7138,7.61024 L 45.6655,7.99015 L 44.6258,8.38767 L 43.5949,8.80262 L 42.573,9.23482 L 41.5603,9.68406 L 40.5569,10.1502 L 39.5631,10.633 L 38.5791,11.1323 L 37.605,11.6479 L 36.6409,12.1796 L 35.6872,12.7273 L 34.7439,13.2908 L 33.8112,13.8698 L 32.8894,14.4643 L 31.9786,15.0739 L 31.0789,15.6986 L 30.1906,16.3382 L 29.3138,16.9924 L 28.4486,17.6611 L 27.5954,18.3441 L 26.7542,19.0413 L 25.9252,19.7525 L 25.1086,20.4774 L 24.3045,21.216 L 23.5132,21.968 L 22.7348,22.7332 L 21.9695,23.5115 L 21.2175,24.3028 L 20.4788,25.1068 L 19.7539,25.9233 L 19.0426,26.7523 L 18.3454,27.5934 L 17.6623,28.4466 L 16.9935,29.3117 L 16.3393,30.1884 L 15.6997,31.0767 L 15.0749,31.9763 L 14.4652,32.8871 L 13.8707,33.8089 L 13.2916,34.7415 L 12.7281,35.6847 L 12.1804,36.6384 L 11.6486,37.6023 L 11.1329,38.5764 L 10.6336,39.5604 L 10.1508,40.5541 L 9.6846,41.5574 L 9.23531,42.5701 L 8.80308,43.5919 L 8.38809,44.6228 L 7.99053,45.6624 L 7.61058,46.7107 L 7.24844,47.7674 L 6.90428,48.8323 L 6.5783,49.9053 L 6.27067,50.9861 L 5.98159,52.0746 L 5.71124,53.1705 L 5.45979,54.2737 L 5.22745,55.3839 L 5.01438,56.5009 L 4.82077,57.6246 L 4.6468,58.7546 L 4.49264,59.8909 L 4.35849,61.0332 L 4.2445,62.1812 L 4.15085,63.3348 L 4.07772,64.4938 L 4.02528,65.6578 L 3.9937,66.8268 L 3.98313,68.0004 L 3.9937,69.174 L 4.02528,70.343 L 4.07772,71.507 L 4.15085,72.666 L 4.2445,73.8196 L 4.35849,74.9676 L 4.49265,76.1099 L 4.6468,77.2461 L 4.82077,78.3762 L 5.01438,79.4998 L 5.22745,80.6169 L 5.4598,81.7271 L 5.71124,82.8302 L 5.98159,83.9261 L 6.27067,85.0146 L 6.5783,86.0954 L 6.90428,87.1684 L 7.24844,88.2333 L 7.61059,89.29 L 7.99053,90.3383 L 8.38809,91.3779 L 8.80308,92.4088 L 9.23531,93.4306 L 9.6846,94.4432 L 10.1508,95.4465 L 10.6336,96.4402 L 11.133,97.4242 L 11.6486,98.3983 L 12.1804,99.3623 L 12.7281,100.316 L 13.2916,101.259 L 13.8707,102.192 L 14.4652,103.114 L 15.0749,104.024 L 15.6997,104.924 L 16.3393,105.812 L 16.9935,106.689 L 17.6623,107.554 L 18.3454,108.407 L 19.0427,109.248 L 19.7539,110.077 L 20.4789,110.894 L 21.2175,111.698 L 21.9695,112.489 L 22.7348,113.267 L 23.5132,114.033 L 24.3045,114.785 L 25.1086,115.523 L 25.9252,116.248 L 26.7542,116.959 L 27.5954,117.656 L 28.4487,118.339 L 29.3138,119.008 L 30.1906,119.662 L 31.0789,120.302 L 31.9786,120.927 L 32.8894,121.536 L 33.8113,122.131 L 34.7439,122.71 L 35.6872,123.273 L 36.6409,123.821 L 37.605,124.353 L 38.5791,124.868 L 39.5632,125.367 L 40.5569,125.85 L 41.5603,126.316 L 42.573,126.766 L 43.5949,127.198 L 44.6258,127.613 L 45.6655,128.01 L 46.7139,128.39 L 47.7706,128.752 L 48.8356,129.096 L 49.9087,129.422 L 50.9895,129.73 L 52.0781,130.019 L 53.174,130.289 L 54.2773,130.541 L 55.3875,130.773 L 56.5046,130.986 L 57.6283,131.18 L 58.7584,131.354 L 59.8948,131.508 L 61.0371,131.642 L 62.1852,131.756 L 63.3389,131.85 L 64.4979,131.923 L 65.662,131.975 L 66.831,132.007 L 68.0047,132.017 L 69.1784,132.007 L 70.3474,131.975 L 71.5115,131.923 L 72.6705,131.85 L 73.8242,131.756 L 74.9723,131.642 L 76.1146,131.508 L 77.2509,131.354 L 78.3811,131.18 L 79.5048,130.986 L 80.6219,130.773 L 81.7321,130.541 L 82.8353,130.289 L 83.9313,130.019 L 85.0198,129.73 L 86.1007,129.422 L 87.1737,129.096 L 88.2387,128.752 L 89.2955,128.39 L 90.3438,128.01 L 91.3836,127.613 L 92.4145,127.198 L 93.4364,126.766 L 94.4491,126.316 L 95.4524,125.85 L 96.4462,125.367 L 97.4303,124.868 L 98.4044,124.353 L 99.3684,123.821 L 100.322,123.273 L 101.265,122.71 L 102.198,122.131 L 103.12,121.536 L 104.031,120.927 L 104.93,120.302 L 105.819,119.662 L 106.696,119.008 L 107.561,118.339 L 108.414,117.656 L 109.255,116.959 L 110.084,116.248 L 110.901,115.523 L 111.705,114.785 L 112.496,114.033 L 113.275,113.267 L 114.04,112.489 L 114.792,111.698 L 115.53,110.894 L 116.255,110.077 L 116.967,109.248 L 117.664,108.407 L 118.347,107.554 L 119.016,106.689 L 119.67,105.812 L 120.31,104.924 L 120.934,104.024 L 121.544,103.114 L 122.139,102.192 L 122.718,101.259 L 123.281,100.316 L 123.829,99.3623 L 124.361,98.3983 L 124.876,97.4242 L 125.376,96.4403 L 125.859,95.4465 L 126.325,94.4432 L 126.774,93.4306 L 127.206,92.4088 L 127.621,91.3779 L 128.019,90.3383 L 128.399,89.29 L 128.761,88.2333 L 129.105,87.1684 L 129.431,86.0954 L 129.739,85.0146 L 130.028,83.9261 L 130.298,82.8302 L 130.55,81.7271 L 130.782,80.6169 L 130.995,79.4998 L 131.189,78.3762 L 131.363,77.2461 L 131.517,76.1099 L 131.651,74.9676 L 131.765,73.8196 L 131.859,72.666 L 131.932,71.507 L 131.984,70.343 L 132.016,69.174 L 132.026,68.0005 L 132.016,66.8295 L 131.984,65.6633 L 131.932,64.5019 L 131.859,63.3457 L 131.766,62.1948 L 131.653,61.0493 L 131.519,59.9097 L 131.366,58.776 L 131.192,57.6485 L 131,56.5273 L 130.788,55.4128 L 130.556,54.3051 L 130.306,53.2043 L 130.037,52.1108 L 129.749,51.0246 L 129.443,49.9461 L 129.118,48.8754 L 128.776,47.8127 L 128.415,46.7581 L 128.037,45.712 L 127.641,44.6744 L 127.228,43.6456 L 126.798,42.6257 L 126.35,41.615 L 125.886,40.6135 L 125.406,39.6216 L 124.909,38.6394 L 124.395,37.667 L 123.866,36.7047 L 123.321,35.7526 L 122.789,34.8595 L 122.018,33.8143 L 121.058,32.9395 L 119.946,32.2688 L 118.724,31.8279 L 117.44,31.6339 L 116.143,31.6941 L 114.882,32.0062 L 113.707,32.5583 L 112.661,33.3291 L 111.787,34.289 L 111.116,35.4012 L 110.675,36.6228 L 110.481,37.9069 L 110.541,39.2043 L 110.853,40.4649 L 111.405,41.6405 L 111.879,42.4359 L 112.311,43.1908 L 112.731,43.9536 L 113.138,44.7243 L 113.532,45.5026 L 113.913,46.2885 L 114.28,47.0817 L 114.635,47.8823 L 114.975,48.6899 L 115.302,49.5045 L 115.616,50.3259 L 115.915,51.1541 L 116.2,51.9889 L 116.472,52.8301 L 116.729,53.6776 L 116.971,54.5313 L 117.199,55.3911 L 117.412,56.2568 L 117.61,57.1284 L 117.793,58.0057 L 117.961,58.8886 L 118.114,59.7769 L 118.251,60.6706 L 118.373,61.5696 L 118.479,62.4737 L 118.569,63.3829 L 118.643,64.2969 L 118.701,65.2158 L 118.742,66.1394 L 118.767,67.0676 L 118.776,68.0003 L 118.767,68.9354 L 118.742,69.8658 L 118.7,70.7916 L 118.642,71.7126 L 118.568,72.6288 L 118.477,73.5401 L 118.371,74.4463 L 118.249,75.3473 L 118.111,76.243 L 117.958,77.1334 L 117.789,78.0182 L 117.605,78.8974 L 117.406,79.7709 L 117.192,80.6385 L 116.963,81.5001 L 116.719,82.3557 L 116.461,83.2049 L 116.189,84.0479 L 115.902,84.8843 L 115.601,85.7141 L 115.287,86.5372 L 114.958,87.3533 L 114.616,88.1625 L 114.26,88.9645 L 113.891,89.7591 L 113.508,90.5464 L 113.113,91.326 L 112.704,92.098 L 112.282,92.8621 L 111.848,93.6181 L 111.401,94.366 L 110.942,95.1057 L 110.471,95.8368 L 109.987,96.5594 L 109.491,97.2732 L 108.984,97.9781 L 108.464,98.674 L 107.933,99.3607 L 107.391,100.038 L 106.837,100.706 L 106.273,101.364 L 105.697,102.012 L 105.11,102.651 L 104.513,103.279 L 103.905,103.897 L 103.287,104.505 L 102.659,105.102 L 102.02,105.689 L 101.372,106.265 L 100.714,106.829 L 100.046,107.383 L 99.3682,107.925 L 98.6815,108.456 L 97.9856,108.975 L 97.2806,109.483 L 96.5667,109.978 L 95.8441,110.462 L 95.1128,110.934 L 94.3732,111.393 L 93.6252,111.84 L 92.869,112.274 L 92.1049,112.695 L 91.3329,113.104 L 90.5531,113.5 L 89.7658,113.882 L 88.971,114.251 L 88.169,114.607 L 87.3597,114.949 L 86.5435,115.278 L 85.7203,115.593 L 84.8904,115.893 L 84.0539,116.18 L 83.2109,116.452 L 82.3615,116.71 L 81.5059,116.954 L 80.6442,117.183 L 79.7765,117.397 L 78.9029,117.596 L 78.0236,117.78 L 77.1387,117.949 L 76.2482,118.102 L 75.3524,118.24 L 74.4513,118.362 L 73.545,118.469 L 72.6337,118.559 L 71.7174,118.633 L 70.7962,118.691 L 69.8703,118.733 L 68.9398,118.758 L 68.0047,118.767 L 67.0696,118.758 L 66.1391,118.733 L 65.2132,118.691 L 64.292,118.633 L 63.3757,118.559 L 62.4644,118.469 L 61.5581,118.362 L 60.657,118.24 L 59.7611,118.102 L 58.8707,117.949 L 57.9857,117.78 L 57.1064,117.596 L 56.2329,117.397 L 55.3652,117.183 L 54.5034,116.954 L 53.6478,116.71 L 52.7985,116.452 L 51.9554,116.18 L 51.1189,115.893 L 50.289,115.593 L 49.4659,115.278 L 48.6496,114.949 L 47.8404,114.607 L 47.0383,114.251 L 46.2436,113.882 L 45.4562,113.5 L 44.6765,113.104 L 43.9045,112.695 L 43.1403,112.274 L 42.3842,111.84 L 41.6362,111.393 L 40.8965,110.934 L 40.1653,110.462 L 39.4427,109.978 L 38.7288,109.483 L 38.0238,108.975 L 37.3279,108.456 L 36.6411,107.925 L 35.9637,107.383 L 35.2958,106.829 L 34.6375,106.265 L 33.9891,105.689 L 33.3506,105.102 L 32.7221,104.505 L 32.1039,103.897 L 31.4962,103.279 L 30.8989,102.651 L 30.3124,102.012 L 29.7366,101.364 L 29.1719,100.706 L 28.6183,100.038 L 28.076,99.3607 L 27.5451,98.674 L 27.0258,97.9781 L 26.5183,97.2732 L 26.0226,96.5594 L 25.5388,95.8368 L 25.0673,95.1057 L 24.608,94.3661 L 24.1612,93.6181 L 23.727,92.8621 L 23.3054,92.098 L 22.8968,91.3261 L 22.5011,90.5464 L 22.1186,89.7591 L 21.7494,88.9645 L 21.3936,88.1625 L 21.0513,87.3533 L 20.7227,86.5372 L 20.408,85.7141 L 20.1072,84.8843 L 19.8206,84.0479 L 19.5482,83.2049 L 19.2901,82.3557 L 19.0466,81.5001 L 18.8178,80.6385 L 18.6038,79.7709 L 18.4047,78.8974 L 18.2207,78.0182 L 18.0519,77.1334 L 17.8985,76.243 L 17.7606,75.3473 L 17.6383,74.4463 L 17.5319,73.5401 L 17.4414,72.6289 L 17.367,71.7127 L 17.3089,70.7916 L 17.2672,69.8658 L 17.2421,68.9354 L 17.2337,68.0004 L 17.2421,67.0654 L 17.2672,66.135 L 17.3089,65.2092 L 17.367,64.2881 L 17.4414,63.3719 L 17.5319,62.4607 L 17.6383,61.5545 L 17.7606,60.6534 L 17.8985,59.7577 L 18.0519,58.8673 L 18.2207,57.9825 L 18.4047,57.1033 L 18.6038,56.2298 L 18.8178,55.3622 L 19.0466,54.5005 L 19.2901,53.645 L 19.5482,52.7957 L 19.8206,51.9528 L 20.1072,51.1164 L 20.408,50.2866 L 20.7227,49.4635 L 21.0513,48.6473 L 21.3936,47.8382 L 21.7494,47.0362 L 22.1186,46.2415 L 22.5011,45.4542 L 22.8968,44.6746 L 23.3055,43.9026 L 23.727,43.1385 L 24.1612,42.3824 L 24.608,41.6345 L 25.0673,40.8949 L 25.5389,40.1638 L 26.0226,39.4412 L 26.5183,38.7274 L 27.0259,38.0224 L 27.5452,37.3266 L 28.076,36.6399 L 28.6183,35.9625 L 29.1719,35.2947 L 29.7367,34.6365 L 30.3124,33.9881 L 30.8989,33.3496 L 31.4962,32.7212 L 32.104,32.1031 L 32.7221,31.4953 L 33.3506,30.8981 L 33.9891,30.3116 L 34.6376,29.7359 L 35.2958,29.1712 L 35.9637,28.6177 L 36.6411,28.0754 L 37.3279,27.5446 L 38.0238,27.0253 L 38.7288,26.5178 L 39.4427,26.0221 L 40.1653,25.5384 L 40.8965,25.0669 L 41.6362,24.6077 L 42.3842,24.1609 L 43.1403,23.7266 L 43.9045,23.3051 L 44.6765,22.8965 L 45.4563,22.5009 L 46.2436,22.1184 L 47.0383,21.7492 L 47.8404,21.3934 L 48.6496,21.0511 L 49.4659,20.7226 L 50.289,20.4078 L 51.1189,20.1071 L 51.9555,19.8204 L 52.7985,19.548 L 53.6478,19.29 L 54.5035,19.0465 L 55.3652,18.8177 L 56.2329,18.6037 L 57.1064,18.4046 L 57.9858,18.2206 L 58.8707,18.0518 L 59.7611,17.8984 L 60.657,17.7605 L 61.5581,17.6383 L 62.4644,17.5319 L 63.3757,17.4414 L 64.292,17.367 L 65.2132,17.3089 L 66.1391,17.2672 L 67.0696,17.2421 L 68.0044,17.2337 L 68.9501,17.2423 L 69.8908,17.268 L 70.8267,17.3106 L 71.7579,17.37 L 72.684,17.446 L 73.6051,17.5384 L 74.521,17.6472 L 75.4316,17.7721 L 76.3368,17.913 L 77.2365,18.0697 L 78.1305,18.2421 L 79.0188,18.4301 L 79.9012,18.6334 L 80.7776,18.8521 L 81.6478,19.0858 L 82.5118,19.3345 L 83.3693,19.598 L 84.2204,19.8762 L 85.0648,20.1689 L 85.9024,20.476 L 86.733,20.7974 L 87.5566,21.1328 L 88.373,21.4823 L 89.182,21.8455 L 89.9835,22.2224 L 90.7774,22.6129 L 91.5634,23.0168 L 92.3416,23.4339 L 93.1116,23.864 L 93.8734,24.3072 L 94.676,24.7929 L 95.8477,25.3532 L 97.1061,25.6741 L 98.403,25.7433 L 99.6885,25.5583 L 100.913,25.1259 L 102.03,24.463 L 102.996,23.5949 L 103.774,22.5551 L 104.334,21.3834 L 104.655,20.125 L 104.724,18.8281 L 104.539,17.5426 L 104.107,16.318 L 103.444,15.2012 L 102.576,14.2352 L 101.536,13.4571 Z" fill="#0F0F0F" />
<path d="M 42.4877,48.5983 L 43.1532,48.2097 L 43.1695,48.2002 L 44.3407,47.5117 L 44.3536,47.5041 L 45.4971,46.8284 L 45.5063,46.823 L 46.6231,46.1607 L 47.7194,45.5092 L 48.7847,44.8758 L 49.8208,44.2607 L 50.8287,43.6643 L 51.8089,43.0873 L 52.7619,42.5306 L 53.6882,41.9949 L 54.5883,41.481 L 55.4624,40.9895 L 56.311,40.5211 L 57.1343,40.0766 L 57.9326,39.6565 L 58.7062,39.2614 L 59.4552,38.8917 L 60.1797,38.548 L 60.88,38.2304 L 61.5562,37.9392 L 62.2085,37.6744 L 62.8372,37.436 L 63.4424,37.2236 L 64.0248,37.0369 L 64.5849,36.8753 L 65.1237,36.7381 L 65.6423,36.6244 L 66.1423,36.5333 L 66.6254,36.4638 L 67.0941,36.415 L 67.551,36.3861 L 67.9706,36.3771 L 68.6413,36.3974 L 69.301,36.4562 L 69.989,36.5565 L 70.7118,36.7011 L 71.4743,36.8924 L 72.2799,37.1331 L 73.1311,37.4251 L 74.1274,37.8073 L 75.3797,38.1514 L 76.6751,38.2446 L 77.9638,38.0833 L 79.1962,37.6736 L 80.325,37.0314 L 81.3069,36.1813 L 82.104,35.156 L 82.6858,33.9949 L 83.0299,32.7426 L 83.1231,31.4472 L 82.9618,30.1585 L 82.5521,28.9261 L 81.9099,27.7973 L 81.0598,26.8154 L 80.0345,26.0183 L 78.8734,25.4365 L 77.7661,25.0117 L 77.5428,24.9306 L 76.4534,24.5569 L 76.2002,24.4757 L 75.1262,24.1548 L 74.8425,24.0768 L 73.7812,23.8105 L 73.4673,23.7397 L 72.4163,23.5296 L 72.0738,23.4704 L 71.0304,23.3182 L 70.6624,23.275 L 69.6241,23.1824 L 69.2355,23.1593 L 68.1997,23.128 L 67.859,23.1265 L 67.1303,23.142 L 66.8531,23.1537 L 66.1235,23.1999 L 65.8554,23.2223 L 65.124,23.2985 L 64.8668,23.3304 L 64.1327,23.436 L 63.8881,23.4758 L 63.1504,23.6103 L 62.9196,23.6566 L 62.1775,23.8193 L 61.9613,23.8706 L 61.2138,24.0609 L 61.0126,24.1156 L 60.2589,24.333 L 60.0729,24.3896 L 59.312,24.6335 L 59.141,24.6909 L 58.3721,24.9607 L 58.2157,25.0178 L 57.4379,25.3128 L 57.2957,25.3686 L 56.5081,25.6883 L 56.3794,25.7421 L 55.5811,26.086 L 55.4653,26.1371 L 54.6554,26.5044 L 54.5517,26.5525 L 53.7293,26.9427 L 53.6371,26.9873 L 52.8012,27.3998 L 52.7197,27.4408 L 51.8696,27.875 L 51.798,27.9121 L 50.9327,28.3675 L 50.8704,28.4007 L 49.989,28.8766 L 49.9353,28.9059 L 49.037,29.4017 L 48.9913,29.4271 L 48.0752,29.9422 L 48.0369,29.9639 L 47.1021,30.4978 L 47.0707,30.5158 L 46.1162,31.0678 L 46.0913,31.0823 L 45.1163,31.6518 L 45.0973,31.6629 L 44.1009,32.2494 L 44.0875,32.2573 L 43.0688,32.8601 L 43.0605,32.865 L 42.0186,33.4836 L 40.9498,34.1191 L 39.862,34.7655 L 38.7524,35.4236 L 37.6198,36.0927 L 36.4631,36.7727 L 35.2812,37.4629 L 34.0729,38.163 L 32.8246,38.8798 L 31.7793,39.6233 L 30.8968,40.5544 L 30.2103,41.638 L 29.7455,42.8337 L 29.5198,44.0965 L 29.3695,45.9743 L 29.3596,46.1182 L 29.2524,47.9614 L 29.2455,48.1073 L 29.1803,49.9161 L 29.1766,50.0638 L 29.1522,51.8384 L 29.1519,51.9877 L 29.1672,53.7284 L 29.1702,53.8791 L 29.2241,55.5861 L 29.2307,55.7381 L 29.322,57.4116 L 29.3321,57.5646 L 29.4598,59.205 L 29.4736,59.3586 L 29.6364,60.9662 L 29.6538,61.1203 L 29.8507,62.6951 L 29.8718,62.8495 L 30.1016,64.392 L 30.1264,64.5463 L 30.388,66.0566 L 30.4165,66.2107 L 30.7087,67.689 L 30.741,67.8426 L 31.0627,69.2893 L 31.0985,69.442 L 31.4486,70.8573 L 31.488,71.009 L 31.8654,72.3931 L 31.9082,72.5435 L 32.3117,73.8967 L 32.358,74.0455 L 32.7864,75.3682 L 32.8359,75.5152 L 33.2882,76.8074 L 33.3408,76.9524 L 33.8158,78.2145 L 33.8714,78.3573 L 34.368,79.5895 L 34.4264,79.7299 L 34.9435,80.9324 L 35.0046,81.0703 L 35.5409,82.2435 L 35.6045,82.3785 L 36.159,83.5226 L 36.225,83.6548 L 36.7965,84.77 L 36.8646,84.8992 L 37.4521,85.9857 L 37.522,86.1118 L 38.1243,87.17 L 38.196,87.2929 L 38.812,88.3229 L 38.8853,88.4426 L 39.5137,89.4447 L 39.5884,89.5611 L 40.2282,90.5356 L 40.3041,90.6486 L 40.9542,91.5957 L 41.031,91.7053 L 41.6902,92.6254 L 41.768,92.7316 L 42.4352,93.6247 L 42.5136,93.7275 L 43.1876,94.5941 L 43.2665,94.6935 L 43.9463,95.5337 L 44.0256,95.6298 L 44.71,96.4438 L 44.7894,96.5366 L 45.4773,97.3248 L 45.5569,97.4143 L 46.247,98.1769 L 46.3265,98.2632 L 47.0179,99.0004 L 47.0973,99.0836 L 47.7887,99.7957 L 47.8678,99.8758 L 48.5581,100.563 L 48.6368,100.64 L 49.325,101.303 L 49.4032,101.377 L 50.088,102.015 L 50.1657,102.086 L 50.8461,102.701 L 50.9231,102.769 L 51.5979,103.359 L 51.6742,103.425 L 52.3422,103.992 L 52.4178,104.055 L 53.078,104.599 L 53.1528,104.659 L 53.8039,105.179 L 53.8778,105.238 L 54.5188,105.735 L 54.5918,105.791 L 55.2216,106.266 L 55.2936,106.319 L 55.911,106.772 L 55.982,106.823 L 56.5859,107.254 L 56.6559,107.303 L 57.2451,107.712 L 57.3141,107.759 L 57.8875,108.146 L 57.9555,108.191 L 58.5119,108.557 L 58.5789,108.6 L 59.1172,108.945 L 59.1831,108.986 L 59.7023,109.31 L 59.7671,109.35 L 60.266,109.653 L 60.3297,109.692 L 60.8071,109.974 L 60.8697,110.011 L 61.3245,110.274 L 61.3861,110.309 L 61.8172,110.552 L 61.8776,110.586 L 62.2839,110.809 L 62.3433,110.841 L 62.7235,111.045 L 62.7819,111.076 L 63.135,111.261 L 63.1923,111.291 L 63.5171,111.457 L 63.5734,111.486 L 63.8688,111.633 L 63.924,111.661 L 64.189,111.79 L 64.2431,111.816 L 64.4764,111.927 L 64.5296,111.952 L 64.7301,112.046 L 64.7822,112.07 L 64.9488,112.146 L 64.9998,112.169 L 65.1313,112.227 L 65.1812,112.249 L 65.2765,112.291 L 65.3248,112.312 L 65.3829,112.336 L 65.426,112.355 L 65.4456,112.363 L 66.6991,112.746 L 68.0034,112.875 L 69.3077,112.745 L 70.5607,112.36 L 70.5888,112.348 L 70.6407,112.326 L 70.7236,112.291 L 70.7819,112.265 L 70.9177,112.206 L 70.9781,112.179 L 71.1649,112.094 L 71.227,112.066 L 71.4628,111.956 L 71.5263,111.926 L 71.8092,111.791 L 71.8743,111.759 L 72.2023,111.598 L 72.2688,111.565 L 72.64,111.377 L 72.7081,111.342 L 73.1204,111.128 L 73.19,111.091 L 73.6417,110.849 L 73.7128,110.811 L 74.2018,110.541 L 74.2745,110.501 L 74.7989,110.203 L 74.8731,110.16 L 75.4309,109.834 L 75.5066,109.789 L 76.0959,109.434 L 76.1733,109.387 L 76.7921,109.002 L 76.8709,108.952 L 77.5174,108.538 L 77.5978,108.485 L 78.2698,108.041 L 78.3518,107.985 L 79.0475,107.51 L 79.1309,107.452 L 79.8484,106.945 L 79.9333,106.884 L 80.6706,106.346 L 80.7569,106.282 L 81.5121,105.711 L 81.5997,105.644 L 82.3708,105.041 L 82.4597,104.971 L 83.2447,104.335 L 83.3348,104.26 L 84.1319,103.591 L 84.2232,103.513 L 85.0303,102.81 L 85.1226,102.729 L 85.9378,101.991 L 86.031,101.906 L 86.8524,101.134 L 86.9463,101.044 L 87.772,100.237 L 87.8665,100.143 L 88.6945,99.3004 L 88.7895,99.2018 L 89.6178,98.3235 L 89.713,98.2203 L 90.5397,97.3057 L 90.635,97.1979 L 91.4581,96.2465 L 91.5532,96.134 L 92.3708,95.1454 L 92.4655,95.0281 L 93.2757,94.0018 L 93.3698,93.8797 L 94.1705,92.8153 L 94.2636,92.6883 L 95.053,91.5854 L 95.145,91.4536 L 95.9211,90.3116 L 96.0115,90.175 L 96.7723,88.9937 L 96.8609,88.8522 L 97.6046,87.631 L 97.691,87.4849 L 98.4155,86.2234 L 98.4995,86.0727 L 99.203,84.7706 L 99.2842,84.6153 L 99.9646,83.2721 L 100.043,83.1126 L 100.698,81.7278 L 100.773,81.5643 L 101.401,80.1375 L 101.472,79.9702 L 102.072,78.5009 L 102.139,78.3301 L 102.708,76.8181 L 102.77,76.6441 L 103.306,75.0887 L 103.364,74.9119 L 103.866,73.3128 L 103.919,73.1336 L 104.384,71.4904 L 104.432,71.3092 L 104.858,69.6213 L 105.051,68.337 L 104.99,67.0397 L 104.676,65.7793 L 104.123,64.6043 L 103.352,63.5598 L 102.391,62.6859 L 101.278,62.0162 L 100.056,61.5765 L 98.7717,61.3836 L 97.4744,61.445 L 96.214,61.7583 L 95.039,62.3114 L 93.9945,63.0832 L 93.1206,64.0439 L 92.4509,65.1567 L 92.0112,66.3787 L 91.6081,67.9756 L 91.1944,69.4386 L 90.7489,70.8597 L 90.2734,72.2397 L 89.7695,73.5793 L 89.2389,74.8795 L 88.6833,76.1408 L 88.1043,77.3641 L 87.5036,78.55 L 86.8829,79.6991 L 86.2436,80.812 L 85.5876,81.8893 L 84.9163,82.9316 L 84.2315,83.9393 L 83.5347,84.9129 L 82.8276,85.8528 L 82.1119,86.7594 L 81.3893,87.6332 L 80.6615,88.4746 L 79.9302,89.2837 L 79.197,90.0611 L 78.4639,90.8069 L 77.7325,91.5216 L 77.0046,92.2055 L 76.2821,92.8587 L 75.5668,93.4817 L 74.8604,94.0747 L 74.1649,94.6379 L 73.4821,95.1718 L 72.8138,95.6765 L 72.1621,96.1524 L 71.5287,96.5997 L 70.9156,97.0188 L 70.3247,97.4099 L 69.7579,97.7733 L 69.2172,98.1094 L 68.7044,98.4185 L 68.2216,98.7008 L 67.9995,98.8269 L 67.9229,98.7837 L 67.5302,98.5568 L 67.116,98.3113 L 66.6814,98.0472 L 66.2275,97.7641 L 65.7556,97.4621 L 65.2666,97.1407 L 64.7618,96.7999 L 64.2422,96.4396 L 63.7089,96.0595 L 63.1631,95.6594 L 62.6059,95.2392 L 62.0384,94.7988 L 61.4616,94.3379 L 60.8766,93.8564 L 60.2846,93.3541 L 59.6866,92.8309 L 59.0836,92.2866 L 58.4768,91.721 L 57.8671,91.1339 L 57.2557,90.5252 L 56.6435,89.8947 L 56.0316,89.2422 L 55.421,88.5676 L 54.8127,87.8705 L 54.2077,87.1509 L 53.607,86.4085 L 53.0116,85.6431 L 52.4225,84.8545 L 51.8406,84.0424 L 51.2669,83.2065 L 50.7023,82.3467 L 50.1479,81.4626 L 49.6045,80.5538 L 49.0731,79.6202 L 48.5546,78.6614 L 48.0501,77.6769 L 47.5603,76.6665 L 47.0864,75.6298 L 46.6292,74.5664 L 46.1897,73.4758 L 45.7689,72.3576 L 45.3677,71.2114 L 44.9872,70.0366 L 44.6283,68.8329 L 44.2922,67.5998 L 43.9797,66.3366 L 43.6921,65.043 L 43.4303,63.7185 L 43.1955,62.3624 L 42.9887,60.9743 L 42.8111,59.5538 L 42.6639,58.1002 L 42.5482,56.6131 L 42.4651,55.0919 L 42.416,53.5363 L 42.402,51.9457 L 42.4244,50.3197 L 42.4843,48.6577 Z" fill="black" />
<path d="M 57.4027,57.0741 L 58.2799,56.5425 L 58.3493,56.4999 L 59.4593,55.8084 L 59.5125,55.7749 L 60.5492,55.1154 L 60.5826,55.094 L 61.5534,54.4682 L 61.5628,54.4622 L 62.4656,53.8781 L 63.2906,53.3484 L 64.0348,52.8807 L 64.6992,52.4785 L 65.2847,52.1436 L 65.7925,51.8755 L 66.2256,51.6702 L 66.5904,51.5203 L 66.8983,51.4152 L 67.1674,51.3436 L 67.4221,51.2955 L 67.6911,51.2655 L 67.9548,51.256 L 68.4123,51.2788 L 68.7703,51.334 L 69.1414,51.4308 L 69.5884,51.5929 L 70.1527,51.849 L 70.8551,52.2211 L 71.7818,52.7648 L 72.961,53.309 L 74.2238,53.6127 L 75.5215,53.6642 L 76.8043,53.4615 L 78.0229,53.0125 L 79.1305,52.3343 L 80.0846,51.4532 L 80.8484,50.4028 L 81.3926,49.2236 L 81.6963,47.9608 L 81.7478,46.6631 L 81.5451,45.3803 L 81.0961,44.1617 L 80.4179,43.0541 L 79.5368,42.1 L 78.4864,41.3362 L 77.4357,40.7198 L 77.1846,40.5798 L 76.1766,40.0458 L 75.8142,39.8678 L 74.8296,39.4207 L 74.3492,39.225 L 73.3687,38.8694 L 72.7813,38.6868 L 71.7856,38.4273 L 71.1252,38.2906 L 70.0949,38.1316 L 69.4139,38.0622 L 68.3297,38.0082 L 67.7606,38.0043 L 66.9644,38.0331 L 66.4701,38.0695 L 65.7054,38.1548 L 65.2097,38.2291 L 64.469,38.369 L 63.994,38.4769 L 63.2698,38.6697 L 62.8352,38.8015 L 62.12,39.0455 L 61.7399,39.1883 L 61.0263,39.4817 L 60.7079,39.6225 L 59.9883,39.9636 L 59.7328,40.0915 L 58.9997,40.4785 L 58.8039,40.5862 L 58.0499,41.0174 L 57.908,41.1009 L 57.1257,41.5745 L 57.0311,41.6328 L 56.2128,42.1471 L 56.1589,42.1814 L 55.2972,42.7346 L 55.2777,42.7472 L 54.3699,43.3345 L 53.4204,43.9466 L 52.427,44.5785 L 51.3782,45.2318 L 50.2632,45.9075 L 49.0714,46.6064 L 47.743,47.3569 L 46.6888,48.0961 L 45.7975,49.0253 L 45.1028,50.1094 L 44.6309,51.3073 L 44.3997,52.5739 L 44.2526,54.3361 L 44.236,54.5973 L 44.1608,56.3125 L 44.1546,56.5765 L 44.148,58.245 L 44.1523,58.5105 L 44.211,60.1324 L 44.226,60.3982 L 44.3466,61.9738 L 44.3722,62.2385 L 44.5512,63.768 L 44.5872,64.0304 L 44.8213,65.5141 L 44.8675,65.773 L 45.1533,67.211 L 45.209,67.4652 L 45.5431,68.8579 L 45.6079,69.1064 L 45.9869,70.4538 L 46.06,70.6957 L 46.4806,71.9981 L 46.5612,72.2326 L 47.02,73.4903 L 47.1073,73.7166 L 47.6009,74.9298 L 47.6941,75.1476 L 48.2191,76.3165 L 48.3173,76.5252 L 48.8704,77.6501 L 48.9728,77.8496 L 49.5505,78.9306 L 49.6562,79.1208 L 50.2553,80.1581 L 50.3635,80.3389 L 50.9805,81.3329 L 51.0906,81.5044 L 51.7221,82.4551 L 51.8335,82.6175 L 52.4761,83.5253 L 52.5881,83.6788 L 53.2385,84.5438 L 53.3505,84.6887 L 54.0053,85.5112 L 54.1169,85.6477 L 54.7727,86.4279 L 54.8836,86.5564 L 55.537,87.2946 L 55.6467,87.4155 L 56.2943,88.1118 L 56.4025,88.2254 L 57.041,88.8801 L 57.1476,88.9869 L 57.7736,89.6002 L 57.8782,89.7004 L 58.4883,90.2725 L 58.5909,90.3667 L 59.1817,90.8978 L 59.282,90.9862 L 59.8502,91.4766 L 59.9483,91.5596 L 60.4904,92.0095 L 60.5861,92.0874 L 61.0988,92.497 L 61.1921,92.5702 L 61.6721,92.9397 L 61.7629,93.0084 L 62.2067,93.3381 L 62.295,93.4027 L 62.6993,93.6927 L 62.7852,93.7534 L 63.1465,94.004 L 63.23,94.061 L 63.5449,94.2725 L 63.626,94.3261 L 63.8913,94.4986 L 63.9698,94.5489 L 64.182,94.6827 L 64.258,94.7299 L 64.4138,94.8252 L 64.4866,94.8691 L 64.5826,94.9262 L 64.647,94.9639 L 64.6797,94.9829 L 65.9495,95.5497 L 67.3097,95.8389 L 68.7003,95.8379 L 70.0601,95.5466 L 71.3291,94.9778 L 71.3756,94.9508 L 71.453,94.9051 L 71.5887,94.8237 L 71.6767,94.77 L 71.8959,94.6339 L 71.9882,94.5756 L 72.2851,94.3844 L 72.3811,94.3214 L 72.7499,94.0748 L 72.8494,94.0069 L 73.2844,93.7044 L 73.3874,93.6313 L 73.8829,93.2726 L 73.9894,93.1938 L 74.5395,92.7785 L 74.6496,92.6936 L 75.2486,92.2213 L 75.3621,92.1298 L 76.0043,91.6001 L 76.1212,91.5014 L 76.8009,90.914 L 76.921,90.8075 L 77.6323,90.162 L 77.7556,90.0472 L 78.4928,89.3432 L 78.6189,89.2194 L 79.3762,88.4565 L 79.5049,88.3232 L 80.2766,87.501 L 80.4075,87.3574 L 81.1878,86.4756 L 81.3203,86.3212 L 82.1035,85.3793 L 82.237,85.2134 L 83.0174,84.2112 L 83.1512,84.0332 L 83.9229,82.9702 L 84.0562,82.7796 L 84.8136,81.6555 L 84.9453,81.4519 L 85.6825,80.2662 L 85.8116,80.0495 L 86.5229,78.8018 L 86.6481,78.5717 L 87.3278,77.2618 L 87.4478,77.0184 L 88.09,75.6458 L 88.2035,75.3894 L 88.8025,73.9538 L 88.9079,73.6849 L 89.458,72.1859 L 89.5538,71.9055 L 90.0493,70.3426 L 90.1342,70.0518 L 90.5693,68.4247 L 90.7801,67.1432 L 90.737,65.8452 L 90.4414,64.5806 L 89.9047,63.3979 L 89.1477,62.3427 L 88.1993,61.4554 L 87.0961,60.7701 L 85.8803,60.3133 L 84.5988,60.1025 L 83.3008,60.1456 L 82.0362,60.4412 L 80.8535,60.9779 L 79.7983,61.7349 L 78.911,62.6833 L 78.2257,63.7865 L 77.7689,65.0023 L 77.373,66.4829 L 76.9681,67.7601 L 76.5188,68.9845 L 76.0293,70.1575 L 75.5041,71.2801 L 74.9473,72.3532 L 74.3634,73.3774 L 73.7568,74.353 L 73.1322,75.2802 L 72.4943,76.159 L 71.8477,76.9893 L 71.1977,77.771 L 70.5491,78.5039 L 69.9073,79.1877 L 69.2775,79.8222 L 68.6651,80.407 L 68.0757,80.942 L 67.9997,81.0077 L 67.9901,80.9995 L 67.5008,80.5596 L 66.9943,80.0846 L 66.474,79.5749 L 65.9429,79.0303 L 65.4043,78.4513 L 64.8613,77.8378 L 64.3169,77.19 L 63.774,76.5081 L 63.2358,75.7922 L 62.705,75.0423 L 62.1844,74.2585 L 61.6768,73.4408 L 61.1849,72.5889 L 60.7113,71.7028 L 60.2586,70.7822 L 59.8293,69.8266 L 59.4261,68.8354 L 59.0513,67.8081 L 58.7076,66.7439 L 58.3975,65.6417 L 58.1237,64.5005 L 57.8889,63.3191 L 57.696,62.0962 L 57.5478,60.8303 L 57.4476,59.52 L 57.3985,58.1639 Z" fill="black" />
<path d="M 85,44.375 L 83.7566,44.4927 L 82.5575,44.8417 L 81.4451,45.4095 L 80.4591,46.176 L 79.6344,47.114 L 79.0005,48.19 L 78.5797,49.3659 L 78.3871,50.5999 L 78.4295,51.8481 L 78.7054,53.0661 L 79.205,54.2108 L 79.9106,55.2413 L 86.9941,63.7413 L 87.9193,64.6527 L 89.0046,65.3661 L 90.2081,65.854 L 91.4838,66.0978 L 92.7825,66.088 L 94.0543,65.8251 L 95.2504,65.3191 L 96.3248,64.5894 L 97.2362,63.6642 L 97.9496,62.5789 L 98.4375,61.3754 L 98.6813,60.0997 L 98.6715,58.801 L 98.4284,57.625 L 106.25,57.625 L 107.542,57.4977 L 108.785,57.1207 L 109.931,56.5085 L 110.935,55.6846 L 111.758,54.6807 L 112.371,53.5353 L 112.748,52.2925 L 112.875,51 L 112.748,49.7075 L 112.371,48.4647 L 111.758,47.3193 L 110.935,46.3154 L 109.931,45.4915 L 108.785,44.8793 L 107.542,44.5023 L 106.25,44.375 Z" fill="black" />
<path d="M 92.8216,31.625 L 85,31.625 L 83.7075,31.7523 L 82.4647,32.1293 L 81.3193,32.7415 L 80.3154,33.5654 L 79.4915,34.5693 L 78.8793,35.7147 L 78.5023,36.9575 L 78.375,38.25 L 78.5023,39.5425 L 78.8793,40.7853 L 79.4915,41.9307 L 80.3154,42.9346 L 81.3193,43.7585 L 82.4647,44.3707 L 83.7075,44.7477 L 85,44.875 L 106.25,44.875 L 107.493,44.7573 L 108.693,44.4083 L 109.805,43.8405 L 110.791,43.074 L 111.616,42.136 L 112.25,41.06 L 112.67,39.8841 L 112.863,38.6501 L 112.82,37.4019 L 112.545,36.1839 L 112.045,35.0392 L 111.339,34.0087 L 104.256,25.5087 L 103.331,24.5973 L 102.245,23.8839 L 101.042,23.396 L 99.7662,23.1522 L 98.4675,23.162 L 97.1957,23.4249 L 95.9996,23.9309 L 94.9252,24.6606 L 94.0138,25.5858 L 93.3004,26.6711 L 92.8125,27.8746 L 92.5687,29.1503 L 92.5785,30.449 Z" fill="black" />
</svg>