<?xml version='1.0' encoding='utf-8'?>
<svg xmlns="http://www.w3.org/2000/svg" width="112" height="112" viewBox="0 0 112 112" fill="none">
<path d="M 82.1762,11.4751 L 81.2491,10.942 L 80.31,10.4277 L 79.3592,9.93232 L 78.3969,9.45619 L 77.4233,8.99954 L 76.4387,8.56265 L 75.4434,8.14578 L 74.4376,7.74918 L 73.4217,7.37313 L 72.3958,7.01787 L 71.3602,6.68368 L 70.3152,6.37081 L 69.2611,6.07952 L 68.1981,5.81008 L 67.1266,5.56274 L 66.0469,5.33776 L 64.9591,5.1354 L 63.8636,4.95592 L 62.7606,4.79956 L 61.6506,4.66659 L 60.5337,4.55724 L 59.4103,4.47177 L 58.2806,4.41042 L 57.145,4.37344 L 56.0036,4.36106 L 54.8524,4.37366 L 53.7068,4.4113 L 52.5672,4.47375 L 51.4339,4.56074 L 50.3073,4.67202 L 49.1877,4.80735 L 48.0754,4.96647 L 46.9706,5.14911 L 45.8737,5.35502 L 44.785,5.58393 L 43.7047,5.83558 L 42.6332,6.1097 L 41.5707,6.40604 L 40.5175,6.72431 L 39.4739,7.06426 L 38.4402,7.42561 L 37.4166,7.8081 L 36.4035,8.21145 L 35.4011,8.6354 L 34.4096,9.07968 L 33.4294,9.54403 L 32.4607,10.0282 L 31.5037,10.5318 L 30.5588,11.0548 L 29.6262,11.5967 L 28.7061,12.1573 L 27.7989,12.7364 L 26.9047,13.3338 L 26.0238,13.949 L 25.1565,14.582 L 24.303,15.2323 L 23.4636,15.8998 L 22.6386,16.5842 L 21.8282,17.2853 L 21.0326,18.0027 L 20.2521,18.7363 L 19.487,19.4857 L 18.7375,20.2508 L 18.0039,21.0312 L 17.2864,21.8267 L 16.5853,22.6371 L 15.9008,23.4621 L 15.2332,24.3014 L 14.5828,25.1548 L 13.9499,26.022 L 13.3345,26.9029 L 12.7372,27.797 L 12.158,28.7042 L 11.5973,29.6242 L 11.0554,30.5568 L 10.5324,31.5017 L 10.0287,32.4585 L 9.5445,33.4272 L 9.08011,34.4073 L 8.63579,35.3987 L 8.2118,36.4011 L 7.80841,37.4142 L 7.42589,38.4377 L 7.06451,39.4713 L 6.72453,40.5148 L 6.40623,41.568 L 6.10987,42.6304 L 5.83572,43.7019 L 5.58404,44.7821 L 5.35511,45.8708 L 5.14918,46.9676 L 4.96652,48.0723 L 4.80739,49.1846 L 4.67205,50.3041 L 4.56075,51.4307 L 4.47376,52.5639 L 4.41131,53.7034 L 4.37366,54.849 L 4.36106,56.0003 L 4.37366,57.1516 L 4.41131,58.2972 L 4.47376,59.4367 L 4.56075,60.5699 L 4.67205,61.6964 L 4.80739,62.816 L 4.96652,63.9283 L 5.14918,65.033 L 5.35511,66.1298 L 5.58404,67.2185 L 5.83572,68.2987 L 6.10987,69.3702 L 6.40623,70.4326 L 6.72453,71.4857 L 7.06451,72.5292 L 7.42589,73.5629 L 7.80842,74.5864 L 8.2118,75.5994 L 8.63579,76.6018 L 9.08012,77.5932 L 9.5445,78.5733 L 10.0287,79.542 L 10.5324,80.4988 L 11.0554,81.4437 L 11.5973,82.3763 L 12.158,83.2963 L 12.7372,84.2035 L 13.3346,85.0976 L 13.9499,85.9784 L 14.5828,86.8457 L 15.2333,87.6991 L 15.9008,88.5384 L 16.5853,89.3633 L 17.2864,90.1737 L 18.0039,90.9692 L 18.7375,91.7496 L 19.487,92.5147 L 20.2521,93.2641 L 21.0326,93.9977 L 21.8282,94.7151 L 22.6386,95.4162 L 23.4637,96.1006 L 24.303,96.7681 L 25.1565,97.4184 L 26.0238,98.0514 L 26.9047,98.6666 L 27.7989,99.2639 L 28.7061,99.8431 L 29.6262,100.404 L 30.5588,100.946 L 31.5038,101.469 L 32.4607,101.972 L 33.4294,102.456 L 34.4096,102.921 L 35.4011,103.365 L 36.4035,103.789 L 37.4166,104.192 L 38.4402,104.575 L 39.4739,104.936 L 40.5175,105.276 L 41.5707,105.594 L 42.6332,105.891 L 43.7047,106.165 L 44.785,106.416 L 45.8737,106.645 L 46.9706,106.851 L 48.0754,107.034 L 49.1877,107.193 L 50.3073,107.328 L 51.4339,107.44 L 52.5672,107.527 L 53.7068,107.589 L 54.8524,107.627 L 56.0038,107.639 L 57.1552,107.627 L 58.3008,107.589 L 59.4404,107.527 L 60.5737,107.44 L 61.7003,107.328 L 62.8199,107.193 L 63.9322,107.034 L 65.037,106.851 L 66.1339,106.645 L 67.2226,106.416 L 68.3029,106.165 L 69.3744,105.891 L 70.4369,105.594 L 71.4901,105.276 L 72.5337,104.936 L 73.5674,104.575 L 74.591,104.192 L 75.6041,103.789 L 76.6065,103.365 L 77.598,102.921 L 78.5782,102.456 L 79.5469,101.972 L 80.5038,101.469 L 81.4487,100.946 L 82.3814,100.404 L 83.3014,99.8431 L 84.2087,99.2639 L 85.1029,98.6666 L 85.9838,98.0514 L 86.8511,97.4184 L 87.7045,96.7681 L 88.5439,96.1006 L 89.3689,95.4162 L 90.1793,94.7151 L 90.9749,93.9977 L 91.7554,93.2641 L 92.5205,92.5147 L 93.27,91.7496 L 94.0036,90.9692 L 94.7211,90.1737 L 95.4222,89.3633 L 96.1067,88.5384 L 96.7742,87.699 L 97.4246,86.8456 L 98.0576,85.9784 L 98.6729,85.0976 L 99.2703,84.2035 L 99.8494,83.2963 L 100.41,82.3762 L 100.952,81.4437 L 101.475,80.4988 L 101.979,79.5419 L 102.463,78.5733 L 102.927,77.5931 L 103.372,76.6018 L 103.796,75.5994 L 104.199,74.5863 L 104.581,73.5629 L 104.943,72.5292 L 105.283,71.4857 L 105.601,70.4326 L 105.897,69.3701 L 106.172,68.2987 L 106.423,67.2185 L 106.652,66.1298 L 106.858,65.033 L 107.041,63.9283 L 107.2,62.816 L 107.335,61.6964 L 107.447,60.5699 L 107.534,59.4367 L 107.596,58.2972 L 107.634,57.1516 L 107.646,55.9999 L 107.633,54.8293 L 107.594,53.6643 L 107.53,52.5055 L 107.44,51.3533 L 107.325,50.208 L 107.185,49.0699 L 107.02,47.9394 L 106.831,46.8168 L 106.618,45.7024 L 106.382,44.5964 L 106.122,43.4993 L 105.838,42.4113 L 105.532,41.3327 L 105.203,40.2637 L 104.852,39.2048 L 104.479,38.1562 L 104.084,37.1182 L 103.667,36.091 L 103.229,35.075 L 102.771,34.0704 L 102.291,33.0775 L 101.791,32.0967 L 101.272,31.1281 L 100.732,30.1721 L 100.196,29.2688 L 99.6887,28.5775 L 99.056,27.9985 L 98.3225,27.5541 L 97.5164,27.2613 L 96.6686,27.1313 L 95.8118,27.1693 L 94.9789,27.3737 L 94.2018,27.7367 L 93.5105,28.2443 L 92.9315,28.877 L 92.4871,29.6105 L 92.1943,30.4166 L 92.0643,31.2644 L 92.1023,32.1212 L 92.3067,32.9541 L 92.6697,33.7312 L 93.1578,34.5544 L 93.6059,35.3482 L 94.0375,36.1523 L 94.4523,36.9665 L 94.8501,37.7905 L 95.2308,38.624 L 95.594,39.4669 L 95.9396,40.319 L 96.2672,41.18 L 96.5768,42.0497 L 96.8681,42.9279 L 97.1409,43.8143 L 97.3948,44.7089 L 97.6298,45.6113 L 97.8456,46.5214 L 98.0419,47.4389 L 98.2185,48.3636 L 98.3753,49.2955 L 98.5119,50.2342 L 98.6282,51.1796 L 98.7238,52.1315 L 98.7987,53.0897 L 98.8524,54.054 L 98.8849,55.0242 L 98.8957,56.0007 L 98.8852,56.96 L 98.8539,57.9141 L 98.8019,58.8624 L 98.7296,59.8048 L 98.6371,60.7411 L 98.5246,61.6712 L 98.3925,62.5948 L 98.2409,63.5118 L 98.07,64.422 L 97.88,65.3252 L 97.6713,66.2213 L 97.4439,67.1099 L 97.1981,67.991 L 96.9342,68.8644 L 96.6522,69.7298 L 96.3525,70.587 L 96.0353,71.4359 L 95.7007,72.2762 L 95.349,73.1077 L 94.9803,73.9303 L 94.595,74.7436 L 94.1931,75.5475 L 93.775,76.3418 L 93.3408,77.1263 L 92.8908,77.9007 L 92.4251,78.6648 L 91.944,79.4184 L 91.4477,80.1612 L 90.9364,80.8931 L 90.4104,81.6139 L 89.8698,82.3232 L 89.3149,83.0209 L 88.7459,83.7067 L 88.163,84.3805 L 87.5664,85.0419 L 86.9564,85.6908 L 86.3332,86.3269 L 85.697,86.9501 L 85.0481,87.5601 L 84.3866,88.1566 L 83.7128,88.7394 L 83.0269,89.3084 L 82.3291,89.8633 L 81.6198,90.4039 L 80.899,90.9299 L 80.167,91.4411 L 79.4241,91.9374 L 78.6705,92.4184 L 77.9063,92.8841 L 77.1318,93.3341 L 76.3473,93.7683 L 75.5529,94.1864 L 74.7489,94.5882 L 73.9355,94.9735 L 73.1129,95.3421 L 72.2813,95.6938 L 71.4409,96.0284 L 70.592,96.3457 L 69.7346,96.6453 L 68.8692,96.9273 L 67.9957,97.1912 L 67.1145,97.437 L 66.2258,97.6643 L 65.3297,97.8731 L 64.4264,98.063 L 63.5161,98.2339 L 62.599,98.3855 L 61.6753,98.5176 L 60.7451,98.6301 L 59.8087,98.7226 L 58.8662,98.7949 L 57.9177,98.8469 L 56.9636,98.8782 L 56.0038,98.8887 L 55.044,98.8782 L 54.0899,98.8469 L 53.1414,98.7949 L 52.1989,98.7226 L 51.2625,98.6301 L 50.3324,98.5176 L 49.4086,98.3855 L 48.4915,98.2339 L 47.5812,98.063 L 46.6779,97.8731 L 45.7818,97.6643 L 44.8931,97.437 L 44.0119,97.1912 L 43.1384,96.9273 L 42.273,96.6453 L 41.4156,96.3456 L 40.5667,96.0284 L 39.7263,95.6938 L 38.8947,95.3421 L 38.0721,94.9735 L 37.2586,94.5882 L 36.4546,94.1864 L 35.6603,93.7683 L 34.8757,93.3341 L 34.1013,92.8841 L 33.3371,92.4184 L 32.5834,91.9374 L 31.8405,91.4411 L 31.1085,90.9299 L 30.3878,90.4039 L 29.6784,89.8633 L 28.9806,89.3084 L 28.2947,88.7394 L 27.6209,88.1566 L 26.9594,87.56 L 26.3105,86.9501 L 25.6743,86.3269 L 25.0511,85.6908 L 24.4411,85.0419 L 23.8445,84.3804 L 23.2616,83.7067 L 22.6926,83.0209 L 22.1376,82.3232 L 21.597,81.6138 L 21.071,80.8931 L 20.5597,80.1612 L 20.0634,79.4184 L 19.5823,78.6648 L 19.1166,77.9007 L 18.6666,77.1263 L 18.2324,76.3418 L 17.8143,75.5475 L 17.4124,74.7436 L 17.0271,73.9302 L 16.6584,73.1077 L 16.3067,72.2762 L 15.9721,71.4359 L 15.6548,70.587 L 15.3551,69.7298 L 15.0732,68.8644 L 14.8092,67.991 L 14.5634,67.1099 L 14.336,66.2212 L 14.1273,65.3252 L 13.9374,64.422 L 13.7665,63.5118 L 13.6148,62.5948 L 13.4827,61.6712 L 13.3703,60.7411 L 13.2778,59.8048 L 13.2054,58.8624 L 13.1534,57.914 L 13.1221,56.96 L 13.1116,56.0003 L 13.1221,55.0406 L 13.1534,54.0865 L 13.2054,53.1382 L 13.2778,52.1958 L 13.3703,51.2595 L 13.4827,50.3294 L 13.6148,49.4058 L 13.7665,48.4888 L 13.9374,47.5786 L 14.1273,46.6753 L 14.3361,45.7793 L 14.5634,44.8906 L 14.8092,44.0095 L 15.0732,43.1362 L 15.3551,42.2708 L 15.6548,41.4135 L 15.9721,40.5646 L 16.3067,39.7243 L 16.6584,38.8928 L 17.0271,38.0703 L 17.4124,37.2569 L 17.8143,36.453 L 18.2324,35.6587 L 18.6666,34.8742 L 19.1166,34.0998 L 19.5823,33.3357 L 20.0634,32.5821 L 20.5597,31.8392 L 21.071,31.1073 L 21.597,30.3866 L 22.1376,29.6773 L 22.6926,28.9796 L 23.2616,28.2937 L 23.8445,27.62 L 24.4411,26.9585 L 25.0511,26.3096 L 25.6743,25.6735 L 26.3105,25.0503 L 26.9595,24.4404 L 27.6209,23.8438 L 28.2948,23.261 L 28.9806,22.692 L 29.6784,22.1371 L 30.3878,21.5965 L 31.1086,21.0705 L 31.8405,20.5593 L 32.5835,20.063 L 33.3371,19.5819 L 34.1013,19.1163 L 34.8757,18.6663 L 35.6603,18.2321 L 36.4547,17.814 L 37.2587,17.4122 L 38.0721,17.0268 L 38.8947,16.6582 L 39.7263,16.3065 L 40.5667,15.9719 L 41.4157,15.6547 L 42.273,15.355 L 43.1384,15.0731 L 44.0119,14.8091 L 44.8931,14.5634 L 45.7818,14.336 L 46.678,14.1272 L 47.5813,13.9373 L 48.4915,13.7664 L 49.4086,13.6148 L 50.3324,13.4827 L 51.2625,13.3703 L 52.1989,13.2778 L 53.1414,13.2054 L 54.0899,13.1534 L 55.044,13.1221 L 56.004,13.1116 L 56.9551,13.1219 L 57.9009,13.1527 L 58.8411,13.2038 L 59.7754,13.2748 L 60.7038,13.3657 L 61.6261,13.4762 L 62.542,13.6061 L 63.4514,13.755 L 64.3541,13.923 L 65.25,14.1096 L 66.1389,14.3148 L 67.0205,14.5383 L 67.8948,14.7799 L 68.7614,15.0394 L 69.6202,15.3165 L 70.4711,15.6112 L 71.3137,15.9231 L 72.148,16.252 L 72.9737,16.5979 L 73.7906,16.9603 L 74.5985,17.3393 L 75.3972,17.7345 L 76.1865,18.1457 L 76.9661,18.5727 L 77.7359,19.0153 L 78.5344,19.4967 L 79.3087,19.8654 L 80.1402,20.076 L 80.9967,20.1203 L 81.8453,19.9966 L 82.6536,19.7098 L 83.3904,19.2708 L 84.0273,18.6965 L 84.54,18.0089 L 84.9087,17.2346 L 85.1193,16.4031 L 85.1636,15.5466 L 85.0399,14.698 L 84.7531,13.8897 L 84.3141,13.1529 L 83.7398,12.516 L 83.0522,12.0033 Z" fill="#0F0F0F" />
<path d="M 33.9453,39.3795 L 34.4078,39.1109 L 34.4223,39.1024 L 35.6,38.4122 L 35.6113,38.4056 L 36.7554,37.7304 L 36.7633,37.7258 L 37.8751,37.0666 L 37.8792,37.0642 L 38.9601,36.4218 L 40.009,35.7983 L 41.025,35.1961 L 42.0087,34.6163 L 42.9612,34.0598 L 43.8831,33.5277 L 44.7752,33.0211 L 45.6382,32.5409 L 46.4728,32.0882 L 47.2794,31.6637 L 48.0586,31.2684 L 48.811,30.9029 L 49.5368,30.5678 L 50.2366,30.2636 L 50.9109,29.9905 L 51.5601,29.7486 L 52.1849,29.5377 L 52.7863,29.3575 L 53.3654,29.2073 L 53.9238,29.0862 L 54.4635,28.9935 L 54.9871,28.9282 L 55.4977,28.8893 L 55.9808,28.8769 L 56.6785,28.9009 L 57.3744,28.9716 L 58.0976,29.0913 L 58.8547,29.2622 L 59.6503,29.4866 L 60.4877,29.7661 L 61.4433,30.1301 L 62.2708,30.3553 L 63.1264,30.4147 L 63.9772,30.306 L 64.7904,30.0335 L 65.5348,29.6076 L 66.1818,29.0446 L 66.7065,28.3662 L 67.0889,27.5985 L 67.3141,26.771 L 67.3735,25.9154 L 67.2648,25.0646 L 66.9923,24.2514 L 66.5664,23.507 L 66.0034,22.86 L 65.325,22.3353 L 64.5573,21.9529 L 63.5165,21.5566 L 63.3447,21.4952 L 62.3227,21.1541 L 62.125,21.0932 L 61.1187,20.8094 L 60.8948,20.7526 L 59.901,20.5282 L 59.6516,20.4794 L 58.6672,20.3165 L 58.3948,20.2802 L 57.4167,20.1809 L 57.1254,20.1611 L 56.1505,20.1276 L 55.8878,20.1264 L 55.1634,20.145 L 54.9439,20.1562 L 54.2183,20.2114 L 54.008,20.2325 L 53.2798,20.3234 L 53.0809,20.3528 L 52.3488,20.4786 L 52.1629,20.5147 L 51.4256,20.6745 L 51.2537,20.7154 L 50.51,20.9084 L 50.3525,20.9524 L 49.601,21.1776 L 49.4581,21.2231 L 48.6976,21.4798 L 48.569,21.5254 L 47.7981,21.8127 L 47.6832,21.8573 L 46.9007,22.1742 L 46.7989,22.217 L 46.0035,22.5627 L 45.9139,22.6029 L 45.1043,22.9766 L 45.0261,23.0137 L 44.201,23.4145 L 44.1334,23.4481 L 43.2915,23.8752 L 43.2336,23.9052 L 42.3736,24.3577 L 42.3246,24.3839 L 41.4452,24.861 L 41.4044,24.8834 L 40.5044,25.3841 L 40.471,25.4029 L 39.549,25.9265 L 39.5225,25.9416 L 38.5773,26.4872 L 38.557,26.4989 L 37.5872,27.0656 L 37.5727,27.0741 L 36.5771,27.6609 L 36.5679,27.6664 L 35.5451,28.2726 L 35.5407,28.2753 L 34.4895,28.9 L 33.4107,29.5412 L 32.3048,30.1969 L 31.1702,30.8664 L 30.0054,31.549 L 28.8087,32.2442 L 27.5687,32.9569 L 26.8772,33.4494 L 26.2938,34.0662 L 25.8405,34.784 L 25.5344,35.5759 L 25.387,36.4119 L 25.2395,38.3151 L 25.232,38.4327 L 25.1381,40.2925 L 25.1337,40.4121 L 25.0918,42.2289 L 25.0907,42.3502 L 25.0989,44.1245 L 25.1012,44.2472 L 25.1578,45.9792 L 25.1637,46.1031 L 25.267,47.7934 L 25.2764,47.9182 L 25.4246,49.5671 L 25.4377,49.6925 L 25.6291,51.3003 L 25.6459,51.426 L 25.8787,52.9932 L 25.8993,53.1189 L 26.1717,54.6458 L 26.196,54.7712 L 26.5064,56.2583 L 26.5343,56.383 L 26.8808,57.8306 L 26.9124,57.9542 L 27.2933,59.3628 L 27.3284,59.4852 L 27.742,60.855 L 27.7804,60.9758 L 28.2249,62.3073 L 28.2665,62.4262 L 28.7402,63.7199 L 28.7849,63.8366 L 29.286,65.0927 L 29.3335,65.2071 L 29.8603,66.4261 L 29.9105,66.5379 L 30.4612,67.7201 L 30.5138,67.8291 L 31.0867,68.9749 L 31.1416,69.081 L 31.7348,70.1909 L 31.7917,70.2938 L 32.4036,71.3681 L 32.4622,71.4679 L 33.091,72.5069 L 33.1512,72.6034 L 33.7952,73.6077 L 33.8566,73.7008 L 34.514,74.6707 L 34.5765,74.7604 L 35.2456,75.6962 L 35.3089,75.7826 L 35.9879,76.6847 L 36.0519,76.7677 L 36.7391,77.6366 L 36.8035,77.7162 L 37.4971,78.5522 L 37.5618,78.6284 L 38.2601,79.432 L 38.3249,79.505 L 39.026,80.2765 L 39.0908,80.3462 L 39.7931,81.086 L 39.8577,81.1526 L 40.5594,81.8611 L 40.6236,81.9246 L 41.323,82.6022 L 41.3868,82.6627 L 42.0821,83.3098 L 42.1453,83.3674 L 42.8348,83.9844 L 42.8973,84.0393 L 43.5792,84.6265 L 43.641,84.6787 L 44.3136,85.2365 L 44.3746,85.2862 L 45.0361,85.815 L 45.0962,85.8622 L 45.7449,86.3625 L 45.8041,86.4074 L 46.4382,86.8795 L 46.4964,86.9221 L 47.1141,87.3663 L 47.1714,87.4068 L 47.771,87.8237 L 47.8272,87.8621 L 48.4071,88.2519 L 48.4622,88.2884 L 49.0205,88.6516 L 49.0745,88.6862 L 49.6094,89.0231 L 49.6624,89.056 L 50.1723,89.3671 L 50.2242,89.3983 L 50.7072,89.6839 L 50.758,89.7135 L 51.2124,89.974 L 51.2622,90.0021 L 51.6863,90.2379 L 51.7349,90.2646 L 52.1269,90.4761 L 52.1745,90.5014 L 52.5327,90.689 L 52.5792,90.713 L 52.9018,90.8771 L 52.9472,90.8999 L 53.2325,91.0408 L 53.2769,91.0625 L 53.5231,91.1807 L 53.5664,91.2012 L 53.7718,91.297 L 53.814,91.3165 L 53.9768,91.3903 L 54.0179,91.4087 L 54.1364,91.461 L 54.1761,91.4783 L 54.2484,91.5094 L 54.2837,91.5244 L 54.3082,91.5347 L 55.1384,91.7893 L 56.0026,91.875 L 56.8667,91.7883 L 57.6966,91.5326 L 57.7309,91.5182 L 57.773,91.5003 L 57.8739,91.4565 L 57.9213,91.4357 L 58.0861,91.362 L 58.1354,91.3395 L 58.361,91.2353 L 58.4119,91.2113 L 58.6954,91.0759 L 58.7479,91.0504 L 59.0864,90.883 L 59.1404,90.8559 L 59.531,90.656 L 59.5864,90.6271 L 60.0263,90.3941 L 60.0832,90.3634 L 60.5694,90.0965 L 60.6279,90.0638 L 61.1574,89.7625 L 61.2174,89.7277 L 61.7874,89.3913 L 61.8489,89.3543 L 62.4565,88.9821 L 62.5196,88.9427 L 63.1618,88.5342 L 63.2264,88.4923 L 63.9004,88.0467 L 63.9664,88.0021 L 64.6693,87.5188 L 64.7368,87.4714 L 65.4656,86.9498 L 65.5345,86.8994 L 66.2864,86.3388 L 66.3566,86.2853 L 67.1286,85.685 L 67.2001,85.6281 L 67.9893,84.9876 L 68.0621,84.9272 L 68.8656,84.2458 L 68.9394,84.1817 L 69.7543,83.4587 L 69.829,83.3908 L 70.6524,82.6255 L 70.7279,82.5536 L 71.5569,81.7455 L 71.6331,81.6694 L 72.4647,80.8178 L 72.5413,80.7373 L 73.3727,79.8415 L 73.4494,79.7566 L 74.2777,78.816 L 74.3544,78.7266 L 75.1766,77.7405 L 75.2529,77.6464 L 76.0662,76.6142 L 76.1419,76.5153 L 76.9433,75.4364 L 77.018,75.3328 L 77.8046,74.2065 L 77.8779,74.0981 L 78.6469,72.9238 L 78.7185,72.8106 L 79.4669,71.5876 L 79.5365,71.4698 L 80.2613,70.1975 L 80.3285,70.0752 L 81.0269,68.7529 L 81.0912,68.6263 L 81.7603,67.2534 L 81.8214,67.1227 L 82.4583,65.6985 L 82.5157,65.5641 L 83.1175,64.088 L 83.171,63.9501 L 83.7348,62.4215 L 83.784,62.2806 L 84.3068,60.6988 L 84.3515,60.5553 L 84.8304,58.9196 L 84.8704,58.774 L 85.3025,57.0838 L 85.4325,56.2361 L 85.3946,55.3792 L 85.1903,54.5463 L 84.8274,53.7692 L 84.3199,53.0778 L 83.6872,52.4988 L 82.9538,52.0542 L 82.1477,51.7614 L 81.3,51.6314 L 80.4431,51.6693 L 79.6102,51.8736 L 78.8331,52.2365 L 78.1417,52.744 L 77.5627,53.3767 L 77.1181,54.1101 L 76.8253,54.9162 L 76.4118,56.5332 L 75.9752,58.0243 L 75.4994,59.464 L 74.9871,60.8532 L 74.4408,62.1931 L 73.8632,63.4846 L 73.2568,64.7289 L 72.6241,65.9267 L 71.9676,67.0789 L 71.2899,68.1864 L 70.5936,69.2499 L 69.881,70.2701 L 69.1548,71.2477 L 68.4176,72.1834 L 67.6719,73.0776 L 66.9204,73.9311 L 66.1657,74.7442 L 65.4104,75.5176 L 64.6573,76.2518 L 63.9091,76.9472 L 63.1685,77.6043 L 62.4384,78.2236 L 61.7213,78.8056 L 61.0203,79.3507 L 60.3381,79.8595 L 59.6775,80.3323 L 59.0414,80.7697 L 58.4327,81.1721 L 57.8543,81.5401 L 57.309,81.8741 L 56.7998,82.1747 L 56.3295,82.4423 L 55.9998,82.6233 L 55.9145,82.5773 L 55.5397,82.3688 L 55.1356,82.1372 L 54.704,81.8819 L 54.2466,81.6029 L 53.7652,81.2997 L 53.2616,80.972 L 52.7375,80.6196 L 52.1945,80.2422 L 51.6345,79.8395 L 51.0592,79.4111 L 50.4702,78.9568 L 49.8693,78.4764 L 49.2581,77.9695 L 48.6383,77.4359 L 48.0117,76.8752 L 47.3799,76.2872 L 46.7444,75.6716 L 46.1071,75.0281 L 45.4694,74.3564 L 44.833,73.6561 L 44.1996,72.9271 L 43.5706,72.1689 L 42.9476,71.3812 L 42.3323,70.5636 L 41.7261,69.7158 L 41.1307,68.8374 L 40.5474,67.9279 L 39.978,66.9869 L 39.4238,66.014 L 38.8864,65.0087 L 38.3673,63.9704 L 37.8681,62.8987 L 37.3902,61.7929 L 36.9352,60.6524 L 36.5046,59.4767 L 36.1001,58.265 L 35.7232,57.0168 L 35.3755,55.7314 L 35.0587,54.408 L 34.7745,53.0459 L 34.5244,51.6445 L 34.3103,50.2031 L 34.1338,48.7208 L 33.9969,47.1971 L 33.9011,45.6312 L 33.8485,44.0225 L 33.8409,42.3702 L 33.88,40.6738 Z" fill="black" />
<path d="M 46.2125,46.3743 L 46.954,45.9335 L 47.0173,45.8952 L 48.2026,45.1633 L 48.2499,45.1336 L 49.3364,44.4434 L 49.363,44.4264 L 50.3631,43.7809 L 51.273,43.1935 L 52.0845,42.68 L 52.8017,42.246 L 53.4283,41.8945 L 53.9693,41.6239 L 54.4335,41.427 L 54.8374,41.2913 L 55.2084,41.2021 L 55.5833,41.1488 L 55.9731,41.1309 L 56.5185,41.1626 L 56.9883,41.2476 L 57.4834,41.3981 L 58.0654,41.641 L 58.7697,42.0017 L 59.6732,42.528 L 60.453,42.8849 L 61.2875,43.0829 L 62.1446,43.1142 L 62.9913,42.9777 L 63.7951,42.6787 L 64.5252,42.2285 L 65.1534,41.6447 L 65.6556,40.9494 L 66.0125,40.1696 L 66.2105,39.3351 L 66.2418,38.478 L 66.1053,37.6313 L 65.8063,36.8275 L 65.3561,36.0974 L 64.7723,35.4692 L 64.077,34.967 L 63.0714,34.3813 L 62.8642,34.268 L 61.9029,33.7755 L 61.5933,33.6319 L 60.651,33.2386 L 60.2378,33.09 L 59.2892,32.8017 L 58.7959,32.6826 L 57.8157,32.5053 L 57.2914,32.4428 L 56.2545,32.3824 L 55.7992,32.3796 L 54.9733,32.4176 L 54.5584,32.4565 L 53.7714,32.5684 L 53.3643,32.6461 L 52.6038,32.8289 L 52.2328,32.9357 L 51.4862,33.1866 L 51.1717,33.306 L 50.4265,33.6221 L 50.1778,33.7369 L 49.4214,34.1152 L 49.2379,34.2124 L 48.4578,34.6501 L 48.3333,34.7227 L 47.5169,35.2167 L 47.4425,35.2627 L 46.5774,35.8102 L 46.5443,35.8314 L 45.618,36.4293 L 44.6312,37.0662 L 43.5816,37.7329 L 42.4515,38.4307 L 41.224,39.1604 L 39.8412,39.9455 L 39.1445,40.4366 L 38.5563,41.0534 L 38.0988,41.7726 L 37.7894,42.5669 L 37.6399,43.4061 L 37.499,45.1931 L 37.4874,45.4068 L 37.436,47.1349 L 37.4349,47.3509 L 37.4676,49.0203 L 37.4773,49.2372 L 37.589,50.8483 L 37.6093,51.0643 L 37.7948,52.6176 L 37.8256,52.8312 L 38.0795,54.3268 L 38.1204,54.5366 L 38.4375,55.975 L 38.4878,56.1794 L 38.8629,57.561 L 38.9217,57.7589 L 39.3495,59.0839 L 39.4159,59.2744 L 39.8912,60.5432 L 39.9642,60.7254 L 40.4818,61.9384 L 40.5602,62.1117 L 41.1148,63.2692 L 41.1977,63.4333 L 41.784,64.5356 L 41.8703,64.6903 L 42.4831,65.7378 L 42.5719,65.8831 L 43.206,66.8761 L 43.2964,67.012 L 43.9465,67.9509 L 44.0377,68.0778 L 44.6985,68.963 L 44.7899,69.0811 L 45.4562,69.9128 L 45.5472,70.0226 L 46.2138,70.8012 L 46.3038,70.9031 L 46.9654,71.6289 L 47.054,71.7234 L 47.7054,72.3968 L 47.7924,72.4843 L 48.4283,73.1057 L 48.5133,73.1866 L 49.1285,73.7563 L 49.2114,73.8312 L 49.8006,74.3495 L 49.8812,74.4188 L 50.4392,74.8861 L 50.5175,74.9501 L 51.039,75.3668 L 51.1148,75.4261 L 51.5947,75.7924 L 51.668,75.8473 L 52.1009,76.1637 L 52.1718,76.2144 L 52.5524,76.4812 L 52.6208,76.5281 L 52.944,76.7456 L 53.0099,76.7891 L 53.2705,76.9577 L 53.3337,76.9979 L 53.5263,77.1178 L 53.5866,77.1547 L 53.706,77.2264 L 53.759,77.2577 L 53.7999,77.2816 L 54.6412,77.6586 L 55.5428,77.851 L 56.4648,77.8502 L 57.366,77.6563 L 58.2067,77.2777 L 58.2632,77.2447 L 58.326,77.2073 L 58.4898,77.1079 L 58.5617,77.0634 L 58.8244,76.8969 L 58.9003,76.8477 L 59.2532,76.6138 L 59.3328,76.5598 L 59.7674,76.2578 L 59.8504,76.1986 L 60.3582,75.8279 L 60.4446,75.7631 L 61.017,75.3232 L 61.1069,75.2522 L 61.7353,74.7425 L 61.8285,74.6647 L 62.5044,74.0846 L 62.6009,73.9993 L 63.3158,73.3483 L 63.4153,73.2548 L 64.1605,72.5323 L 64.2627,72.4299 L 65.0298,71.6353 L 65.1343,71.5232 L 65.9147,70.656 L 66.021,70.5334 L 66.8061,69.5931 L 66.9134,69.4593 L 67.6947,68.4452 L 67.8023,68.2995 L 68.5712,67.2112 L 68.6778,67.053 L 69.4258,65.8898 L 69.5303,65.7188 L 70.2489,64.4802 L 70.3498,64.2961 L 71.0303,62.9814 L 71.1262,62.7844 L 71.7601,61.3932 L 71.8491,61.1836 L 72.4279,59.7153 L 72.5084,59.4938 L 73.0235,57.9479 L 73.0938,57.7158 L 73.5367,56.0916 L 73.6801,55.246 L 73.6559,54.3887 L 73.4648,53.5526 L 73.1143,52.7699 L 72.6178,52.0705 L 71.9944,51.4815 L 71.2681,51.0254 L 70.4668,50.7197 L 69.6212,50.5763 L 68.7639,50.6005 L 67.9278,50.7916 L 67.1451,51.1421 L 66.4457,51.6386 L 65.8567,52.262 L 65.4006,52.9883 L 65.0949,53.7896 L 64.6839,55.2968 L 64.2444,56.6159 L 63.7506,57.8686 L 63.2093,59.0564 L 62.6275,60.1804 L 62.0119,61.2415 L 61.3697,62.2402 L 60.7081,63.1766 L 60.0345,64.051 L 59.3563,64.8632 L 58.6815,65.613 L 58.018,66.3003 L 57.3737,66.9249 L 56.7569,67.4866 L 56.176,67.9852 L 55.9988,68.1289 L 55.5403,67.7449 L 55.033,67.2986 L 54.5018,66.8067 L 53.952,66.2694 L 53.3886,65.6868 L 52.8164,65.059 L 52.2404,64.3862 L 51.6653,63.6685 L 51.096,62.9059 L 50.5369,62.0984 L 49.9927,61.246 L 49.4676,60.3485 L 48.9661,59.4056 L 48.4924,58.4169 L 48.0507,57.3817 L 47.6452,56.2993 L 47.2801,55.1686 L 46.9597,53.9883 L 46.6882,52.7571 L 46.4703,51.4732 L 46.3105,50.1348 L 46.2138,48.7402 L 46.1853,47.2873 Z" fill="black" />
<path d="M 70,37.625 L 69.1789,37.7027 L 68.387,37.9332 L 67.6524,38.3082 L 67.0013,38.8144 L 66.4567,39.4337 L 66.038,40.1443 L 65.7602,40.9209 L 65.633,41.7358 L 65.661,42.56 L 65.8432,43.3644 L 66.1731,44.1203 L 66.639,44.8008 L 72.4724,51.8008 L 73.0834,52.4027 L 73.8001,52.8738 L 74.5949,53.196 L 75.4373,53.357 L 76.295,53.3506 L 77.1348,53.1769 L 77.9247,52.8428 L 78.6342,52.361 L 79.2361,51.75 L 79.7072,51.0333 L 80.0294,50.2385 L 80.1904,49.3961 L 80.184,48.5384 L 80.0103,47.6986 L 79.6762,46.9087 L 79.3138,46.375 L 87.5,46.375 L 88.3535,46.2909 L 89.1742,46.042 L 89.9306,45.6377 L 90.5936,45.0936 L 91.1377,44.4306 L 91.542,43.6742 L 91.7909,42.8535 L 91.875,42 L 91.7909,41.1465 L 91.542,40.3258 L 91.1377,39.5694 L 90.5936,38.9064 L 89.9306,38.3623 L 89.1742,37.958 L 88.3535,37.7091 L 87.5,37.625 Z" fill="black" />
<path d="M 78.1862,27.125 L 70,27.125 L 69.1465,27.2091 L 68.3258,27.458 L 67.5694,27.8623 L 66.9064,28.4064 L 66.3623,29.0694 L 65.958,29.8258 L 65.7091,30.6465 L 65.625,31.5 L 65.7091,32.3535 L 65.958,33.1742 L 66.3623,33.9306 L 66.9064,34.5936 L 67.5694,35.1377 L 68.3258,35.542 L 69.1465,35.7909 L 70,35.875 L 87.5,35.875 L 88.3211,35.7973 L 89.113,35.5668 L 89.8476,35.1918 L 90.4987,34.6856 L 91.0433,34.0663 L 91.462,33.3557 L 91.7398,32.5791 L 91.867,31.7642 L 91.839,30.94 L 91.6568,30.1356 L 91.3269,29.3797 L 90.861,28.6992 L 85.0276,21.6992 L 84.4166,21.0973 L 83.6999,20.6262 L 82.9051,20.304 L 82.0627,20.143 L 81.205,20.1494 L 80.3652,20.3231 L 79.5753,20.6572 L 78.8658,21.139 L 78.2639,21.75 L 77.7928,22.4667 L 77.4706,23.2615 L 77.3096,24.1039 L 77.316,24.9616 L 77.4897,25.8014 L 77.8238,26.5913 Z" fill="black" />
</svg>