<svg preserveAspectRatio="none" width="100%" height="100%" overflow="visible" style="display: block;" viewBox="0 0 3125.66 2820.04" fill="none" xmlns="http://www.w3.org/2000/svg">
<g id="Vector" filter="url(#filter0_f_0_56)">
<path d="M406.119 1027.98C481.028 898.809 589.273 808.752 660.213 675.573C695.57 609.184 772.727 440.302 789.432 426.363C907.79 278.642 1102.33 266.106 1251.25 359.271C1300.92 390.36 1350.66 432.179 1401.75 457.652C1411.26 457.852 1420.77 457.652 1430.36 456.649C1487.82 450.933 1542.5 422.752 1597.26 398.684C1701.91 352.753 1810.3 321.363 1920.05 308.326C2021.55 296.292 2131.89 303.613 2212.64 386.85C2319.69 497.164 2339.09 698.638 2396.4 862.405C2435.73 974.826 2495.88 1074.01 2570.04 1148.52C2630.04 1208.79 2699.03 1253.42 2752.9 1323.42C2806.76 1393.32 2843.61 1500.82 2816.57 1594.49C2798.74 1656.07 2757.46 1699.09 2717.61 1738C2648.55 1805.29 2577.08 1870.58 2496.93 1909.89C2366.96 1973.47 2216.69 1967.55 2101.93 2071.05C1981.62 2179.46 1923.12 2389.66 1793 2475.4C1704.76 2533.57 1600.93 2522.54 1502.95 2510.2C1377.32 2494.26 1246.53 2476.2 1139.41 2386.75C994.685 2265.9 914.906 2032.14 763.214 1927.74C692.874 1879.3 613.02 1863.26 536.911 1834.27C460.803 1805.29 383.196 1757.96 340.498 1668.7C313.979 1613.35 303.567 1546.86 300.795 1481.37C293.904 1319.91 332.033 1155.74 406.119 1027.98Z" fill="url(#paint0_linear_0_56)"/>
</g>
<defs>
<filter id="filter0_f_0_56" x="-1.16323e-07" y="1.28049e-06" width="3125.66" height="2820.04" filterUnits="userSpaceOnUse" color-interpolation-filters="sRGB">
<feFlood flood-opacity="0" result="BackgroundImageFix"/>
<feBlend mode="normal" in="SourceGraphic" in2="BackgroundImageFix" result="shape"/>
<feGaussianBlur stdDeviation="150" result="effect1_foregroundBlur_0_56"/>
</filter>
<linearGradient id="paint0_linear_0_56" x1="1562.83" y1="2520.04" x2="1562.83" y2="300" gradientUnits="userSpaceOnUse">
<stop stop-color="#3070E7"/>
<stop offset="1" stop-color="#16BDEB"/>
</linearGradient>
</defs>
</svg>
